<svg width="139" height="37" viewBox="0 0 139 37" fill="none" xmlns="http://www.w3.org/2000/svg">
<g id="BurlyCare logo 1" clip-path="url(#clip0_416_6117)">
<g id="Group 35">
<g id="Group 24">
<g id="Group 24_2">
<path id="Subtraction 1" d="M17.7962 36.2176C16.5915 36.2179 15.3899 36.0968 14.2096 35.8561C11.9334 35.3899 9.77124 34.48 7.84656 33.1783C4.98516 31.2468 2.74534 28.5269 1.39847 25.3481C0.943428 24.2715 0.596093 23.1525 0.361546 22.0075C-0.120515 19.6407 -0.120515 17.201 0.361546 14.8343C0.827837 12.558 1.73774 10.3959 3.03933 8.47119C4.97064 5.60965 7.69038 3.36963 10.869 2.02255C11.9456 1.5675 13.0646 1.22016 14.2096 0.98563C17.195 0.376729 20.2864 0.538836 23.1918 1.45664C24.8756 1.99201 26.4699 2.77626 27.9216 3.78337H25.7659C23.3215 2.44988 20.5806 1.75327 17.7962 1.75779C16.6682 1.75743 15.5432 1.87076 14.438 2.09606C12.3066 2.53257 10.2821 3.38451 8.47994 4.60325C5.8009 6.41204 3.70392 8.95895 2.44307 11.9354C2.017 12.9434 1.69178 13.9911 1.47216 15.0632C1.02079 17.2793 1.02079 19.5636 1.47216 21.7797C1.90867 23.9111 2.7606 25.9358 3.97935 27.7381C5.7879 30.4167 8.33434 32.5134 11.3102 33.7742C12.3182 34.2003 13.3659 34.5255 14.438 34.7451C16.654 35.1965 18.9382 35.1965 21.1541 34.7451C23.2855 34.3088 25.3101 33.457 27.1124 32.2383C29.7915 30.4296 31.8887 27.8827 33.1496 24.9062C33.5757 23.8981 33.9009 22.8504 34.1205 21.7782C34.576 19.5421 34.5719 17.2366 34.1083 15.0021V11.294C34.5907 12.3974 34.9593 13.5471 35.2085 14.7253C35.713 17.1256 35.7207 19.6039 35.2311 22.0073C34.7648 24.2835 33.8549 26.4457 32.5533 28.3704C30.6219 31.2317 27.9021 33.4714 24.7235 34.8183C23.6469 35.2733 22.5279 35.6207 21.3829 35.8552C20.2025 36.0962 19.0009 36.2176 17.7962 36.2176ZM32.6289 8.58346H31.2467C30.7729 7.93709 30.2535 7.32537 29.6925 6.75298V5.18452C30.81 6.18969 31.7964 7.33159 32.6285 8.58327L32.6289 8.58346Z" fill="#4D3D33"/>
<g id="Clip path group">
<mask id="mask0_416_6117" style="mask-type:luminance" maskUnits="userSpaceOnUse" x="1" y="1" width="34" height="35">
<g id="clip-path">
<path id="Path 13022" d="M17.7894 1.77637C21.0815 1.77633 24.2997 2.75252 27.037 4.58148C29.7743 6.41044 31.9078 9.01004 33.1676 12.0515C34.4275 15.093 34.7571 18.4398 34.1149 21.6686C33.4726 24.8975 31.8874 27.8634 29.5595 30.1912C27.2317 32.5191 24.2658 34.1044 21.037 34.7467C17.8081 35.3889 14.4614 35.0593 11.4199 33.7995C8.37835 32.5397 5.77874 30.4062 3.94975 27.669C2.12075 24.9317 1.14453 21.7135 1.14453 18.4214C1.14451 16.2356 1.57502 14.0711 2.4115 12.0517C3.24797 10.0322 4.47402 8.19725 6.01964 6.65161C7.56527 5.10597 9.40019 3.8799 11.4197 3.0434C13.4391 2.20691 15.6036 1.77637 17.7894 1.77637Z" fill="white"/>
</g>
</mask>
<g mask="url(#mask0_416_6117)">
<g id="Mask Group 1">
<path id="Union 5" d="M16.11 41.7469C15.5153 41.7468 14.9264 41.6295 14.377 41.4018C13.8275 41.1742 13.3283 40.8405 12.9078 40.4199C12.4873 39.9992 12.1538 39.4999 11.9263 38.9504C11.6988 38.4009 11.5818 37.812 11.5818 37.2172V35.9503C11.099 36.2006 10.5629 36.3309 10.0191 36.3302H8.16646C7.2656 36.3301 6.40166 35.9722 5.76464 35.3352C5.12762 34.6983 4.76968 33.8343 4.76953 32.9335L4.76953 26.7816C4.76963 25.8807 5.12754 25.0167 5.76456 24.3797C6.40158 23.7426 7.26555 23.3846 8.16646 23.3845H8.17523V22.9234C7.63498 22.7121 7.17102 22.3429 6.84396 21.8638C6.5169 21.3847 6.34196 20.8181 6.34201 20.2381V20.1898C6.34201 19.4253 6.64569 18.6922 7.18625 18.1516C7.7268 17.6111 8.45995 17.3074 9.22441 17.3074C9.98887 17.3074 10.722 17.6111 11.2626 18.1516C11.8031 18.6922 12.1068 19.4253 12.1068 20.1898V20.2381C12.1066 20.8656 11.9017 21.476 11.5233 21.9766C11.1448 22.4772 10.6134 22.8407 10.0097 23.012V23.3845H10.0191C10.8899 23.3835 11.7275 23.7184 12.3577 24.3194C12.7723 23.7058 13.3313 23.2034 13.9854 22.8562C14.6396 22.509 15.3689 22.3277 16.1095 22.3282H16.6372V21.6401C15.835 21.3264 15.146 20.778 14.6603 20.0666C14.1746 19.3552 13.9147 18.5138 13.9146 17.6524V17.4913C13.9146 16.3564 14.3655 15.2679 15.168 14.4653C15.9706 13.6628 17.0591 13.2119 18.194 13.2119C19.329 13.2119 20.4175 13.6628 21.2201 14.4653C22.0226 15.2679 22.4735 16.3564 22.4735 17.4913V17.6517C22.4733 18.5833 22.1693 19.4895 21.6075 20.2327C21.0458 20.9759 20.2569 21.5156 19.3607 21.77V22.328H19.8893C20.6622 22.3277 21.4223 22.5252 22.0971 22.9019C22.772 23.2785 23.3392 23.8218 23.7446 24.4797C24.0624 24.134 24.4487 23.858 24.8788 23.6694C25.3089 23.4809 25.7736 23.3838 26.2432 23.3843H26.252V22.9234C25.7114 22.7126 25.2471 22.3434 24.9198 21.8643C24.5926 21.3851 24.4177 20.8183 24.418 20.2381V20.1898C24.418 19.8114 24.4926 19.4367 24.6374 19.0871C24.7822 18.7375 24.9944 18.4199 25.262 18.1523C25.5296 17.8847 25.8472 17.6725 26.1968 17.5277C26.5464 17.3828 26.9211 17.3083 27.2995 17.3083C27.6779 17.3083 28.0526 17.3828 28.4022 17.5277C28.7518 17.6725 29.0695 17.8847 29.337 18.1523C29.6046 18.4199 29.8169 18.7375 29.9617 19.0871C30.1065 19.4367 30.181 19.8114 30.181 20.1898V20.2381C30.1812 20.8655 29.9767 21.4758 29.5985 21.9765C29.2203 22.4771 28.6891 22.8407 28.0856 23.012V23.3845H28.0944C28.9953 23.3845 29.8593 23.7425 30.4964 24.3795C31.1334 25.0166 31.4913 25.8807 31.4913 26.7816V32.9335C31.4912 33.8344 31.1333 34.6984 30.4963 35.3354C29.8593 35.9724 28.9953 36.3304 28.0944 36.3304H26.2436C25.5969 36.3314 24.9635 36.1471 24.4184 35.7992V37.2174C24.4185 38.4186 23.9414 39.5706 23.0921 40.4201C22.2428 41.2695 21.0909 41.7469 19.8897 41.747L16.11 41.7469Z" fill="#EAA663"/>
<g id="noun_Doctor_1396017">
<g id="Group">
<path id="Compound Path" d="M15.5742 22.3623V24.1665C15.5742 24.7434 15.7829 25.3009 16.1617 25.736C16.5406 26.1712 17.064 26.4546 17.6354 26.534V29.2538C17.6299 29.5683 17.6871 29.8807 17.8036 30.1728C17.9201 30.4649 18.0936 30.7309 18.3141 30.9553C18.5345 31.1796 18.7974 31.3578 19.0874 31.4794C19.3775 31.601 19.6888 31.6637 20.0033 31.6637C20.3178 31.6637 20.6292 31.601 20.9192 31.4794C21.2092 31.3578 21.4721 31.1796 21.6926 30.9553C21.913 30.7309 22.0865 30.4649 22.203 30.1728C22.3195 29.8807 22.3767 29.5683 22.3712 29.2538V27.7846C22.6602 27.705 22.9106 27.5232 23.0759 27.2731C23.2411 27.0229 23.31 26.7213 23.2698 26.4241C23.2297 26.127 23.0831 25.8545 22.8573 25.6572C22.6315 25.46 22.3419 25.3512 22.0421 25.3512C21.7422 25.3512 21.4526 25.46 21.2268 25.6572C21.001 25.8545 20.8544 26.127 20.8143 26.4241C20.7741 26.7213 20.843 27.0229 21.0083 27.2731C21.1735 27.5232 21.4239 27.705 21.7129 27.7846V29.2538C21.7129 29.7075 21.5327 30.1425 21.212 30.4633C20.8912 30.7841 20.4561 30.9643 20.0025 30.9643C19.5489 30.9643 19.1138 30.7841 18.793 30.4633C18.4723 30.1425 18.2921 29.7075 18.2921 29.2538V26.534C18.8617 26.4524 19.3829 26.1681 19.7598 25.7332C20.1366 25.2983 20.3439 24.742 20.3436 24.1665V22.3468C20.3436 22.3468 20.2085 22.3316 20.0441 22.3265C19.8797 22.3214 19.6859 22.3265 19.6859 22.3265V24.1665C19.6859 24.6245 19.504 25.0637 19.1801 25.3875C18.8563 25.7114 18.4171 25.8933 17.9591 25.8933C17.5011 25.8933 17.0619 25.7114 16.7381 25.3875C16.4142 25.0637 16.2323 24.6245 16.2323 24.1665V22.338C16.2323 22.338 16.0494 22.3318 15.8849 22.338C15.7203 22.3442 15.5742 22.3623 15.5742 22.3623ZM21.4509 26.5888C21.4509 26.4739 21.485 26.3616 21.5488 26.266C21.6127 26.1704 21.7034 26.096 21.8096 26.052C21.9158 26.008 22.0326 25.9965 22.1454 26.0189C22.2581 26.0413 22.3616 26.0967 22.4429 26.1779C22.5242 26.2592 22.5795 26.3627 22.6019 26.4755C22.6243 26.5882 22.6128 26.705 22.5689 26.8112C22.5249 26.9174 22.4504 27.0081 22.3548 27.072C22.2593 27.1358 22.1469 27.1699 22.032 27.1699C21.8779 27.1699 21.7301 27.1087 21.6211 26.9997C21.5121 26.8907 21.4509 26.7429 21.4509 26.5888Z" fill="#6D3D0F"/>
</g>
</g>
</g>
</g>
</g>
</g>
<g id="Group 25">
<path id="Union 11" d="M29.0301 14.0397C28.9706 14.0398 28.9117 14.0282 28.8567 14.0055C28.8017 13.9828 28.7518 13.9495 28.7097 13.9075C28.6675 13.8656 28.6341 13.8157 28.6113 13.7608C28.5885 13.7059 28.5767 13.647 28.5766 13.5875V9.29903H24.2894C24.2299 9.29913 24.171 9.2875 24.116 9.26483C24.0611 9.24216 24.0111 9.20887 23.969 9.16688C23.9269 9.12489 23.8935 9.07501 23.8706 9.0201C23.8478 8.96519 23.836 8.90632 23.8359 8.84685V5.19412C23.8359 5.13457 23.8476 5.07559 23.8704 5.02056C23.8931 4.96554 23.9265 4.91554 23.9687 4.87344C24.0108 4.83133 24.0608 4.79795 24.1158 4.7752C24.1709 4.75245 24.2298 4.74077 24.2894 4.74085H28.5766V0.453277C28.5766 0.39373 28.5883 0.334762 28.6111 0.279745C28.6339 0.224728 28.6673 0.174741 28.7094 0.132644C28.7515 0.0905457 28.8015 0.0571623 28.8565 0.0344023C28.9115 0.0116423 28.9705 -4.7918e-05 29.0301 1.47619e-07H32.6826C32.7422 -4.7918e-05 32.8011 0.0116423 32.8562 0.0344023C32.9112 0.0571623 32.9612 0.0905457 33.0033 0.132644C33.0454 0.174741 33.0788 0.224728 33.1016 0.279745C33.1244 0.334762 33.1361 0.39373 33.1361 0.453277V4.74085H37.4233C37.4828 4.74077 37.5418 4.75245 37.5968 4.7752C37.6519 4.79795 37.7019 4.83133 37.744 4.87344C37.7861 4.91554 37.8195 4.96554 37.8423 5.02056C37.8651 5.07559 37.8768 5.13457 37.8767 5.19412V8.84685C37.8767 8.90632 37.8649 8.96519 37.842 9.0201C37.8192 9.07501 37.7858 9.12489 37.7437 9.16688C37.7016 9.20887 37.6516 9.24216 37.5966 9.26483C37.5416 9.2875 37.4827 9.29913 37.4233 9.29903H33.1362V13.5875C33.1362 13.647 33.1244 13.7059 33.1016 13.7608C33.0787 13.8157 33.0453 13.8656 33.0032 13.9075C32.9611 13.9495 32.9111 13.9828 32.8561 14.0055C32.8012 14.0282 32.7423 14.0398 32.6828 14.0397H29.0301Z" fill="#BA2B0C"/>
</g>
</g>
<g id="Group 19">
<path id="Path 13041" d="M46.5205 9.54509C47.5239 9.54509 48.3094 9.81686 48.8768 10.3604C49.4443 10.9039 49.728 11.6597 49.728 12.6277C49.7293 13.1237 49.6191 13.6137 49.4054 14.0614C49.196 14.5089 48.8674 14.8902 48.4557 15.1634C47.9886 15.4598 47.4498 15.6241 46.8968 15.6388L46.8251 15.2804C47.2649 15.2801 47.7025 15.3435 48.1242 15.4686C48.5402 15.5897 48.9273 15.7939 49.2621 16.0689C49.6018 16.3503 49.8769 16.7018 50.0684 17.0992C50.2835 17.568 50.3877 18.0799 50.3731 18.5954C50.3872 19.1465 50.2801 19.694 50.0595 20.1992C49.8693 20.6223 49.5805 20.9936 49.2173 21.282C48.8569 21.5608 48.4463 21.7676 48.0077 21.8913C47.5476 22.0235 47.071 22.0899 46.5921 22.0884H41.7719C41.7015 22.0886 41.6318 22.0744 41.5671 22.0467C41.5024 22.0189 41.444 21.9782 41.3956 21.9271C41.3445 21.8787 41.3038 21.8203 41.2761 21.7556C41.2483 21.6909 41.2342 21.6212 41.2344 21.5508V10.0827C41.2342 10.0122 41.2483 9.94254 41.2761 9.87782C41.3038 9.81311 41.3445 9.75475 41.3956 9.70636C41.444 9.65522 41.5024 9.61453 41.5671 9.58679C41.6318 9.55905 41.7015 9.54486 41.7719 9.54509H46.5205ZM46.3771 10.6023H42.1662L42.3812 10.2798V15.3508L42.1841 15.082H46.3771C46.9582 15.0858 47.5189 14.8679 47.945 14.4728C48.3691 14.0786 48.5812 13.4935 48.5812 12.7175C48.5812 12.0604 48.39 11.5438 48.0077 11.1675C47.6255 10.7912 47.0819 10.6028 46.3771 10.6023ZM46.5026 16.1572H42.2916L42.3812 16.0497V21.1924L42.2744 21.0311H46.5384C47.2245 21.0555 47.8991 20.8506 48.4557 20.4488C48.9694 20.0605 49.2262 19.4423 49.2262 18.5942C49.2515 18.089 49.1201 17.5883 48.8499 17.1606C48.6036 16.8058 48.2529 16.5365 47.8465 16.3901C47.4161 16.2327 46.9609 16.1538 46.5026 16.1572ZM61.7695 9.54509C61.8423 9.54115 61.915 9.5527 61.983 9.57895C62.0509 9.60521 62.1125 9.64558 62.1637 9.6974C62.2605 9.80188 62.312 9.94036 62.3071 10.0827V17.5011C62.3181 18.3434 62.1014 19.1729 61.6799 19.9023C61.2735 20.6068 60.6937 21.1957 59.9955 21.613C59.2753 22.0415 58.4503 22.2619 57.6123 22.2496C56.7715 22.2611 55.9438 22.0408 55.2199 21.613C54.5178 21.1976 53.9346 20.6082 53.5266 19.9017C53.1052 19.1724 52.8885 18.3428 52.8994 17.5006V10.0827C52.8972 10.0114 52.9096 9.94053 52.9358 9.87428C52.962 9.80802 53.0014 9.74783 53.0518 9.6974C53.1079 9.64492 53.1742 9.60437 53.2464 9.57819C53.3187 9.55201 53.3956 9.54075 53.4723 9.54509C53.542 9.54452 53.611 9.55767 53.6756 9.58381C53.7402 9.60994 53.799 9.64854 53.8486 9.6974C53.9013 9.74649 53.9429 9.80623 53.9707 9.87266C53.9985 9.93909 54.0119 10.0107 54.0099 10.0827V17.5011C54 18.1556 54.1708 18.8002 54.5034 19.364C54.8249 19.9062 55.2776 20.359 55.8199 20.6804C56.3603 21.0068 56.9804 21.1777 57.6118 21.1741C58.2551 21.181 58.8878 21.0102 59.4402 20.6804C59.9825 20.359 60.4352 19.9062 60.7567 19.364C61.0892 18.7999 61.2597 18.1551 61.2495 17.5004V10.0827C61.2446 9.94036 61.2961 9.80188 61.3929 9.6974C61.4412 9.64674 61.4998 9.60696 61.5648 9.5807C61.6297 9.55444 61.6995 9.5423 61.7695 9.54509ZM66.2851 22.0884C66.1232 22.0948 65.9655 22.0368 65.8463 21.9271C65.7929 21.88 65.7501 21.8221 65.7207 21.7572C65.6914 21.6924 65.6762 21.622 65.676 21.5508V10.0827C65.6758 10.0122 65.69 9.94254 65.7177 9.87782C65.7455 9.81311 65.7862 9.75475 65.8373 9.70636C65.8857 9.65522 65.9441 9.61453 66.0088 9.58679C66.0735 9.55905 66.1432 9.54486 66.2136 9.54509H71.0517C71.6885 9.53413 72.3177 9.68513 72.8802 9.98392C73.4042 10.2636 73.8413 10.6821 74.1435 11.1935C74.4517 11.7202 74.6098 12.3213 74.6006 12.9316C74.606 13.43 74.5084 13.9241 74.3139 14.383C74.1322 14.8119 73.8567 15.1946 73.5075 15.503C73.1686 15.8033 72.7724 16.0318 72.3428 16.1749L71.7156 15.9778C72.1563 16.0131 72.5813 16.1576 72.952 16.3984C73.3398 16.6492 73.6574 16.9945 73.8749 17.4018C74.12 17.8751 74.2461 18.4009 74.2422 18.9339C74.2462 19.3353 74.2731 19.7361 74.3229 20.1345C74.3454 20.3594 74.4089 20.5782 74.5103 20.7803C74.5887 20.9182 74.6994 21.035 74.8328 21.1207C74.9489 21.1882 75.0353 21.297 75.0747 21.4254C75.0957 21.4875 75.1026 21.5535 75.0948 21.6186C75.0871 21.6837 75.0649 21.7462 75.0299 21.8017C74.9872 21.8922 74.9144 21.965 74.8238 22.0077C74.737 22.0489 74.6422 22.0703 74.5461 22.0704C74.4462 22.0694 74.348 22.0448 74.2594 21.9988C74.0649 21.8796 73.8922 21.7281 73.7487 21.5508C73.5446 21.2853 73.3981 20.9802 73.3187 20.6548C73.1888 20.1154 73.1316 19.5609 73.1484 19.0063C73.1631 18.6119 73.0864 18.2194 72.9244 17.8595C72.795 17.5846 72.5977 17.3471 72.351 17.1696C72.1181 17.0083 71.8566 16.8928 71.5805 16.8291C71.3194 16.7658 71.0518 16.7328 70.7831 16.7306H66.6076L66.8047 16.4797V21.5508C66.8064 21.6899 66.7552 21.8244 66.6614 21.9271C66.6145 21.9801 66.5564 22.022 66.4913 22.0499C66.4263 22.0778 66.3558 22.0909 66.2851 22.0884ZM66.6076 15.7451H71.1057C71.5154 15.7082 71.9095 15.57 72.2525 15.3428C72.6181 15.1013 72.9168 14.7712 73.1206 14.3832C73.3489 13.9469 73.4629 13.4599 73.4521 12.9676C73.4612 12.6529 73.4045 12.3398 73.2857 12.0482C73.1669 11.7567 72.9886 11.4931 72.7623 11.2743C72.5222 11.0477 72.2391 10.8715 71.9298 10.756C71.6205 10.6406 71.2912 10.5884 70.9614 10.6023H66.6793L66.8047 10.3514V15.9959L66.6076 15.7451ZM84.6162 21.0311C84.6859 21.0306 84.7549 21.0437 84.8195 21.0699C84.8841 21.096 84.9429 21.1346 84.9925 21.1835C85.0439 21.2297 85.0849 21.2864 85.1127 21.3498C85.1405 21.4131 85.1545 21.4816 85.1538 21.5508C85.1558 21.6228 85.1424 21.6944 85.1146 21.7608C85.0868 21.8272 85.0452 21.887 84.9925 21.9361C84.9429 21.9849 84.8841 22.0235 84.8195 22.0496C84.7549 22.0758 84.6859 22.0889 84.6162 22.0884H78.2191C78.1471 22.0904 78.0756 22.077 78.0091 22.0492C77.9427 22.0214 77.883 21.9798 77.8339 21.9271C77.785 21.8774 77.7464 21.8187 77.7203 21.7541C77.6941 21.6895 77.681 21.6204 77.6816 21.5508V10.0827C77.6813 10.0122 77.6955 9.94254 77.7233 9.87782C77.751 9.81311 77.7917 9.75475 77.8428 9.70636C77.8969 9.65279 77.9614 9.61085 78.0322 9.58312C78.1031 9.55539 78.1789 9.54244 78.255 9.54509C78.3266 9.54535 78.3975 9.55973 78.4636 9.5874C78.5297 9.61507 78.5897 9.65549 78.6402 9.70636C78.6936 9.75346 78.7364 9.81136 78.7657 9.87623C78.7951 9.9411 78.8103 10.0115 78.8105 10.0827V21.3358L78.47 21.0311H84.6162ZM93.6123 9.47341C93.685 9.47168 93.7573 9.48604 93.8239 9.51547C93.8905 9.54489 93.9498 9.58866 93.9975 9.64364C94.093 9.74235 94.1475 9.87365 94.1498 10.011C94.1501 10.0688 94.1411 10.1263 94.1229 10.1812C94.1023 10.2407 94.0753 10.2978 94.0423 10.3514L89.8314 16.1393L90.0464 15.4404V21.5508C90.0466 21.6212 90.0324 21.6909 90.0047 21.7556C89.9769 21.8203 89.9363 21.8787 89.8851 21.9271C89.8338 21.9796 89.7723 22.021 89.7044 22.0487C89.6364 22.0764 89.5635 22.0899 89.4902 22.0884C89.4182 22.0904 89.3466 22.077 89.2802 22.0492C89.2137 22.0214 89.154 21.9798 89.1049 21.9271C89.056 21.8774 89.0174 21.8187 88.9913 21.7541C88.9652 21.6895 88.952 21.6204 88.9526 21.5508V15.5659L89.0422 15.9959L84.9387 10.3873C84.8928 10.3309 84.8565 10.2673 84.8312 10.1991C84.8081 10.139 84.7957 10.0754 84.7947 10.011C84.7937 9.93652 84.8102 9.86286 84.8428 9.79594C84.8755 9.72902 84.9235 9.67072 84.9828 9.62572C85.0895 9.53144 85.2258 9.47755 85.3681 9.47341C85.4578 9.47421 85.5459 9.49761 85.6242 9.54146C85.7025 9.58531 85.7685 9.64818 85.816 9.72428L89.6686 14.9745L89.3998 14.938L93.1456 9.72428C93.1958 9.64657 93.2649 9.58282 93.3463 9.53895C93.4278 9.49509 93.519 9.47255 93.6115 9.47341H93.6123ZM104.597 10.1543C104.742 10.2209 104.869 10.3231 104.964 10.4515C105.06 10.58 105.121 10.7304 105.143 10.889C105.171 11.0511 105.162 11.2173 105.117 11.3755C105.072 11.5337 104.992 11.6798 104.883 11.8032C104.816 11.9038 104.727 11.9881 104.624 12.0501C104.52 12.1121 104.403 12.1502 104.283 12.1616C104.027 12.1834 103.769 12.1338 103.539 12.0183C103.249 11.8857 102.946 11.7836 102.634 11.7136C102.308 11.6409 101.974 11.6048 101.64 11.6061C101.049 11.5963 100.462 11.6997 99.9108 11.9108C99.4198 12.1027 98.9764 12.3992 98.6116 12.7798C98.2493 13.1626 97.9715 13.6174 97.7963 14.1146C97.6056 14.6616 97.5116 15.2377 97.5186 15.8169C97.5047 16.464 97.611 17.108 97.8322 17.7163C98.0206 18.2222 98.3172 18.6808 98.7012 19.0602C99.073 19.4195 99.5197 19.6918 100.009 19.8576C100.535 20.0347 101.086 20.1225 101.64 20.1175C101.965 20.1173 102.288 20.0873 102.608 20.0279C102.933 19.9674 103.247 19.8587 103.54 19.7053C103.77 19.5894 104.029 19.5457 104.284 19.5799C104.407 19.5986 104.524 19.6414 104.631 19.706C104.737 19.7706 104.829 19.8557 104.902 19.9562C105.013 20.0797 105.095 20.2272 105.14 20.3872C105.185 20.5473 105.192 20.7156 105.162 20.879C105.134 21.0297 105.069 21.1713 104.974 21.2915C104.879 21.4117 104.756 21.5069 104.615 21.5689C104.307 21.7233 103.986 21.8521 103.656 21.954C103.33 22.0549 102.997 22.1327 102.661 22.1869C102.323 22.2409 101.981 22.2679 101.639 22.2676C100.806 22.2722 99.9788 22.1327 99.1933 21.8554C98.4337 21.5871 97.7337 21.1732 97.1326 20.6369C96.5145 20.0786 96.028 19.3901 95.708 18.621C95.3457 17.7314 95.1689 16.7771 95.1884 15.8167C95.1794 14.9457 95.3409 14.0813 95.6638 13.2722C95.9677 12.5147 96.4253 11.8283 97.0077 11.2563C97.5969 10.6826 98.2943 10.2318 99.0594 9.93035C99.881 9.6074 100.757 9.44598 101.64 9.45494C102.159 9.45416 102.676 9.5143 103.181 9.63413C103.672 9.7499 104.147 9.92456 104.596 10.1543H104.597ZM111.657 12.3584L107.785 21.4612C107.713 21.6723 107.579 21.8566 107.4 21.9898C107.237 22.1118 107.039 22.1778 106.836 22.178C106.704 22.1887 106.571 22.1702 106.447 22.1237C106.323 22.0773 106.211 22.004 106.119 21.9092C105.962 21.7246 105.879 21.4883 105.887 21.2462C105.888 21.1307 105.906 21.016 105.941 20.9057L110.402 10.1909C110.487 9.96483 110.641 9.77076 110.841 9.63541C111.027 9.50688 111.252 9.44962 111.477 9.47414C111.692 9.47401 111.901 9.53967 112.077 9.66229C112.265 9.79078 112.406 9.97607 112.48 10.1909L116.888 20.6907C116.944 20.8273 116.975 20.9731 116.978 21.1207C116.984 21.2642 116.96 21.4074 116.906 21.5404C116.852 21.6735 116.769 21.7931 116.664 21.8913C116.48 22.0722 116.233 22.175 115.974 22.178C115.764 22.1794 115.559 22.11 115.392 21.9809C115.213 21.8406 115.074 21.6551 114.99 21.4433L111.137 12.4655L111.657 12.3584ZM108.342 19.2751L109.327 17.2144H114.165L114.506 19.2751H108.342ZM119.791 22.0884C119.465 22.0913 119.148 21.9804 118.895 21.7748C118.772 21.6853 118.673 21.568 118.604 21.4325C118.536 21.297 118.5 21.1472 118.501 20.9953V10.6381C118.497 10.4937 118.523 10.35 118.577 10.2159C118.631 10.0819 118.712 9.9603 118.815 9.85867C118.916 9.75595 119.038 9.67513 119.172 9.6212C119.306 9.56727 119.45 9.54136 119.594 9.54509H124.755C125.372 9.54385 125.977 9.71449 126.502 10.0379C127.05 10.3715 127.503 10.8404 127.818 11.3997C128.161 12.0091 128.334 12.6989 128.32 13.3977C128.32 13.8541 128.225 14.3054 128.042 14.7237C127.859 15.1514 127.604 15.5452 127.29 15.8884C126.989 16.2228 126.627 16.4965 126.224 16.6948L126.242 16.2826C126.554 16.4449 126.836 16.6601 127.075 16.9187C127.289 17.1525 127.464 17.4186 127.595 17.7072C127.721 17.9935 127.797 18.2997 127.819 18.6121C127.866 18.9107 127.899 19.1735 127.917 19.4005C127.929 19.5954 127.965 19.788 128.025 19.9739C128.079 20.1299 128.191 20.2587 128.338 20.333C128.464 20.4035 128.573 20.4999 128.658 20.6158C128.742 20.7316 128.802 20.8644 128.831 21.005C128.866 21.1418 128.865 21.285 128.829 21.4213C128.792 21.5576 128.723 21.6825 128.625 21.7845C128.497 21.9379 128.32 22.0423 128.123 22.0801C127.923 22.1219 127.715 22.1219 127.514 22.0801C127.34 22.0482 127.171 21.9908 127.012 21.9099C126.782 21.7674 126.577 21.5889 126.403 21.3813C126.176 21.1046 126.008 20.7845 125.91 20.4406C125.771 19.9452 125.707 19.4317 125.721 18.9174C125.723 18.724 125.687 18.5322 125.614 18.353C125.545 18.1839 125.441 18.0312 125.309 17.905C125.166 17.7727 124.994 17.6746 124.808 17.6183C124.575 17.5484 124.333 17.5152 124.091 17.5198H120.47L120.739 17.1076V20.9953C120.749 21.2764 120.66 21.5521 120.488 21.7748C120.405 21.8782 120.298 21.9605 120.177 22.015C120.056 22.0694 119.924 22.0946 119.791 22.0884ZM120.49 15.6734H124.665C124.784 15.6678 124.901 15.6389 125.008 15.5881C125.116 15.5374 125.212 15.4659 125.292 15.3777C125.516 15.1483 125.687 14.8732 125.794 14.5714C125.929 14.2135 125.995 13.8337 125.991 13.4514C126.008 12.9771 125.859 12.5118 125.571 12.1349C125.29 11.7825 124.989 11.6063 124.666 11.6063H120.526L120.741 11.0329V16.104L120.49 15.6734ZM131.904 9.54509H137.907C138.196 9.53672 138.476 9.64302 138.687 9.84075C138.79 9.93814 138.871 10.0564 138.926 10.1877C138.98 10.3191 139.005 10.4604 139 10.6023C139.005 10.7389 138.979 10.8749 138.925 11.0004C138.871 11.1259 138.789 11.2378 138.687 11.328C138.471 11.5155 138.193 11.6147 137.907 11.6058H132.89L133.051 11.3004V14.7946L132.908 14.6513H137.101C137.39 14.6429 137.67 14.7492 137.88 14.9469C137.984 15.0443 138.065 15.1626 138.119 15.2939C138.173 15.4252 138.199 15.5666 138.194 15.7085C138.199 15.8451 138.173 15.9811 138.119 16.1066C138.064 16.2321 137.983 16.344 137.88 16.4342C137.665 16.6217 137.386 16.7209 137.101 16.7119H132.962L133.051 16.5686V20.189L132.908 20.0277H137.907C138.052 20.024 138.195 20.0499 138.329 20.1038C138.463 20.1577 138.585 20.2385 138.687 20.3413C138.786 20.4344 138.865 20.5469 138.919 20.6717C138.972 20.7965 139 20.931 139 21.067C139.004 21.2049 138.979 21.342 138.924 21.4689C138.87 21.5957 138.789 21.7093 138.687 21.8017C138.474 21.9943 138.194 22.0971 137.907 22.0884H131.904C131.76 22.0921 131.616 22.0662 131.482 22.0123C131.348 21.9583 131.227 21.8775 131.125 21.7748C131.022 21.6732 130.941 21.5516 130.887 21.4175C130.833 21.2834 130.808 21.1398 130.811 20.9953V10.6381C130.808 10.4937 130.833 10.35 130.887 10.2159C130.941 10.0819 131.022 9.9603 131.125 9.85867C131.227 9.75595 131.348 9.67513 131.482 9.6212C131.616 9.56727 131.76 9.54136 131.904 9.54509Z" fill="#4D3D33"/>
<path id="Path 13042" d="M44.7445 25.5244C44.768 25.5386 44.7882 25.5576 44.8036 25.5803C44.8191 25.6029 44.8295 25.6286 44.8341 25.6557C44.8422 25.711 44.8284 25.7673 44.7957 25.8126C44.7822 25.8308 44.7649 25.846 44.7451 25.8571C44.7252 25.8681 44.7032 25.8747 44.6805 25.8765C44.6342 25.8809 44.5876 25.8721 44.5461 25.8509C44.3844 25.7445 44.209 25.6605 44.0246 25.6014C43.8311 25.5404 43.6291 25.5102 43.4262 25.5118C43.1774 25.5094 42.9306 25.5559 42.6997 25.6487C42.479 25.7384 42.2796 25.8736 42.1146 26.0455C41.9462 26.2215 41.8145 26.4293 41.7274 26.6568C41.6332 26.9041 41.5865 27.1669 41.5895 27.4315C41.5859 27.7014 41.6336 27.9696 41.7303 28.2217C41.8187 28.4501 41.9526 28.6581 42.124 28.833C42.29 29.0021 42.4892 29.135 42.7091 29.2234C42.937 29.3141 43.1805 29.3598 43.4258 29.3578C43.6265 29.3593 43.8263 29.3294 44.0177 29.2691C44.2012 29.2104 44.3764 29.1287 44.5394 29.0259C44.5805 29.0006 44.6292 28.9905 44.677 28.9972C44.7009 29.0001 44.7238 29.0081 44.7442 29.0208C44.7647 29.0334 44.7821 29.0503 44.7953 29.0703C44.8134 29.0905 44.8266 29.1145 44.8338 29.1406C44.841 29.1667 44.8421 29.1941 44.8369 29.2206C44.8321 29.2463 44.8219 29.2708 44.807 29.2923C44.7922 29.3138 44.7729 29.3319 44.7506 29.3455C44.6306 29.4206 44.5043 29.4848 44.373 29.5375C44.2238 29.5986 44.0696 29.6468 43.9122 29.6816C43.7526 29.7177 43.5895 29.7361 43.4258 29.7364C43.1297 29.7382 42.8362 29.6813 42.5622 29.569C42.2955 29.4593 42.0522 29.2996 41.8455 29.0985C41.6342 28.8926 41.4675 28.6453 41.3558 28.3722C41.2352 28.0734 41.1754 27.7536 41.1799 27.4315C41.1765 27.117 41.2352 26.8049 41.3527 26.5132C41.4627 26.2415 41.6259 25.9945 41.8327 25.7868C42.038 25.5816 42.2815 25.4186 42.5494 25.3068C42.8271 25.1907 43.1253 25.1319 43.4262 25.134C43.6646 25.1333 43.9018 25.1678 44.1302 25.2364C44.3483 25.3009 44.5554 25.398 44.7445 25.5244ZM48.6035 28.033C48.6084 28.3375 48.5357 28.6381 48.3923 28.9067C48.2585 29.1575 48.0595 29.3675 47.8163 29.5146C47.5649 29.664 47.2768 29.7405 46.9844 29.7353C46.695 29.7391 46.4102 29.6628 46.1616 29.5146C45.9165 29.3678 45.7154 29.1578 45.5792 28.9067C45.434 28.6387 45.3603 28.3378 45.3653 28.033C45.3595 27.7268 45.4335 27.4244 45.5798 27.1554C45.7172 26.9051 45.918 26.6955 46.1621 26.5474C46.4101 26.3973 46.6951 26.3197 46.9849 26.3234C47.2778 26.3184 47.5662 26.396 47.8169 26.5474C48.0591 26.6957 48.2578 26.9055 48.3929 27.1554C48.5369 27.4251 48.6094 27.7273 48.6035 28.033ZM48.2195 28.033C48.2241 27.7918 48.1691 27.5532 48.0595 27.3382C47.9586 27.142 47.8071 26.9763 47.6207 26.8583C47.4298 26.7394 47.2087 26.6782 46.9838 26.6822C46.7623 26.6797 46.5446 26.7408 46.3567 26.8583C46.1686 26.976 46.0151 27.1417 45.912 27.3382C45.8004 27.5525 45.7443 27.7914 45.7489 28.033C45.7441 28.2735 45.8002 28.5113 45.912 28.7242C46.0158 28.9194 46.1692 29.0839 46.3567 29.2011C46.5446 29.3184 46.7623 29.3795 46.9838 29.377C47.2086 29.3809 47.4298 29.3199 47.6207 29.2011C47.8066 29.0837 47.958 28.9192 48.0595 28.7242C48.1693 28.5106 48.2243 28.2731 48.2195 28.033ZM50.965 26.3243C51.2018 26.3126 51.4368 26.3717 51.64 26.494C51.8075 26.6052 51.9355 26.7665 52.0057 26.9548C52.0824 27.1604 52.1203 27.3784 52.1176 27.5979V29.4794C52.1177 29.5045 52.1126 29.5294 52.1027 29.5525C52.0928 29.5756 52.0783 29.5965 52.06 29.6137C52.0427 29.6321 52.0217 29.6467 51.9985 29.6566C51.9752 29.6665 51.9502 29.6715 51.9249 29.6713C51.8986 29.6727 51.8724 29.6682 51.8481 29.6583C51.8237 29.6483 51.8019 29.6331 51.7841 29.6137C51.7506 29.5771 51.7323 29.529 51.7329 29.4794V27.6171C51.7349 27.4575 51.7067 27.299 51.6497 27.1499C51.5962 27.0115 51.5012 26.8931 51.3778 26.8107C51.2291 26.7191 51.0562 26.6745 50.8818 26.6827C50.7 26.6823 50.521 26.7262 50.3601 26.8107C50.202 26.8908 50.065 27.007 49.9602 27.1499C49.8597 27.2849 49.8058 27.4488 49.8066 27.6171V29.4794C49.8067 29.5045 49.8016 29.5294 49.7917 29.5525C49.7818 29.5756 49.7673 29.5965 49.749 29.6137C49.7317 29.632 49.7109 29.6466 49.6878 29.6565C49.6647 29.6664 49.6398 29.6714 49.6146 29.6713C49.5884 29.6727 49.5621 29.6682 49.5378 29.6583C49.5135 29.6483 49.4916 29.6331 49.4738 29.6137C49.4404 29.5771 49.4221 29.529 49.4226 29.4794V26.6123C49.4225 26.5874 49.4273 26.5627 49.4367 26.5397C49.4461 26.5166 49.46 26.4956 49.4775 26.4779C49.495 26.4591 49.5163 26.4443 49.5401 26.4343C49.5638 26.4244 49.5893 26.4196 49.615 26.4203C49.6407 26.4196 49.6663 26.4244 49.69 26.4343C49.7138 26.4442 49.7351 26.4591 49.7527 26.4779C49.7702 26.4956 49.7841 26.5166 49.7935 26.5397C49.8029 26.5627 49.8077 26.5874 49.8075 26.6123V27.1499L49.6603 27.3803C49.6701 27.2401 49.7152 27.1048 49.7914 26.9868C49.8733 26.8577 49.976 26.7431 50.0953 26.6476C50.2193 26.5468 50.3586 26.4666 50.508 26.4099C50.6538 26.3537 50.8087 26.3247 50.965 26.3243ZM54.6639 26.3243C54.9009 26.3126 55.136 26.3717 55.3392 26.494C55.5063 26.6053 55.634 26.7666 55.704 26.9548C55.7807 27.1604 55.8187 27.3784 55.8161 27.5979V29.4794C55.8161 29.5045 55.8111 29.5294 55.8012 29.5525C55.7913 29.5756 55.7767 29.5965 55.7585 29.6137C55.7412 29.632 55.7203 29.6466 55.6971 29.6565C55.674 29.6664 55.6491 29.6715 55.6239 29.6713C55.5976 29.6727 55.5714 29.6682 55.5471 29.6583C55.5227 29.6483 55.5009 29.6331 55.4831 29.6137C55.4496 29.5771 55.4313 29.529 55.4319 29.4794V27.6171C55.4339 27.4575 55.4057 27.299 55.3487 27.1499C55.2951 27.0115 55.2001 26.893 55.0766 26.8107C54.928 26.7192 54.7552 26.6746 54.5808 26.6827C54.399 26.6823 54.22 26.7262 54.0591 26.8107C53.901 26.8908 53.764 27.007 53.6592 27.1499C53.5587 27.2849 53.5048 27.4488 53.5056 27.6171V29.4794C53.5057 29.5045 53.5006 29.5294 53.4907 29.5525C53.4808 29.5756 53.4663 29.5965 53.448 29.6137C53.4307 29.632 53.4099 29.6466 53.3868 29.6565C53.3637 29.6664 53.3388 29.6714 53.3136 29.6713C53.2874 29.6727 53.2611 29.6682 53.2368 29.6583C53.2125 29.6483 53.1906 29.6331 53.1728 29.6137C53.1394 29.5771 53.1211 29.529 53.1216 29.4794V26.6123C53.1215 26.5874 53.1263 26.5627 53.1357 26.5397C53.1451 26.5166 53.159 26.4956 53.1765 26.4779C53.194 26.4591 53.2154 26.4442 53.2391 26.4343C53.2629 26.4244 53.2884 26.4196 53.3142 26.4203C53.3399 26.4196 53.3654 26.4244 53.3891 26.4343C53.4128 26.4443 53.4341 26.4591 53.4517 26.4779C53.4692 26.4956 53.4831 26.5166 53.4925 26.5397C53.5019 26.5627 53.5067 26.5874 53.5065 26.6123V27.1499L53.3593 27.3803C53.3687 27.2403 53.4133 27.1049 53.4892 26.9868C53.571 26.8577 53.6737 26.7431 53.793 26.6476C53.917 26.5468 54.0564 26.4666 54.2057 26.4099C54.3519 26.3536 54.5073 26.3245 54.6639 26.3243ZM58.2989 29.7353C57.9954 29.7415 57.6955 29.6687 57.4286 29.5242C57.1808 29.3873 56.9767 29.1832 56.8398 28.9354C56.6942 28.6642 56.6215 28.3599 56.6286 28.0522C56.6191 27.7296 56.693 27.41 56.8431 27.1243C56.9736 26.8816 57.1656 26.6774 57.3999 26.5324C57.6178 26.3967 57.8694 26.3246 58.1261 26.3243C58.3131 26.3242 58.4985 26.3578 58.6734 26.4236C58.8494 26.4891 59.0104 26.5892 59.147 26.718C59.289 26.8529 59.4022 27.0151 59.4798 27.1949C59.567 27.4016 59.6137 27.6232 59.6173 27.8476C59.6134 27.8979 59.5905 27.9448 59.5533 27.9787C59.5356 27.9963 59.5146 28.0101 59.4915 28.0195C59.4685 28.0289 59.4438 28.0337 59.4189 28.0336H56.8535L56.7767 27.688H59.2982L59.215 27.7648V27.6368C59.2034 27.4508 59.1366 27.2726 59.023 27.1248C58.9163 26.9874 58.778 26.8776 58.6198 26.8049C58.4655 26.7331 58.2973 26.696 58.1271 26.6961C57.9923 26.6974 57.8589 26.7234 57.7336 26.7729C57.5959 26.8259 57.4712 26.9077 57.3679 27.0129C57.2523 27.1323 57.162 27.2738 57.1024 27.4289C57.0301 27.62 56.9953 27.8232 57 28.0274C56.9967 28.2645 57.0493 28.4991 57.1536 28.7121C57.2526 28.9132 57.407 29.082 57.5985 29.1985C57.8086 29.3223 58.0494 29.3844 58.2933 29.3777C58.4303 29.3797 58.5667 29.358 58.6964 29.3137C58.8095 29.2745 58.9154 29.2172 59.01 29.144C59.0934 29.0798 59.1686 29.0057 59.234 28.9233C59.2727 28.8882 59.3226 28.8678 59.3748 28.8657C59.3961 28.8658 59.4171 28.8704 59.4364 28.8792C59.4557 28.888 59.4729 28.9009 59.4869 28.9169C59.5174 28.9475 59.5347 28.9889 59.535 29.0321C59.5348 29.0578 59.529 29.0832 59.5179 29.1064C59.5068 29.1296 59.4908 29.1501 59.471 29.1665C59.3307 29.3297 59.1611 29.4651 58.9709 29.5658C58.7652 29.6791 58.5338 29.7375 58.2989 29.7353ZM61.8763 26.3243C62.0662 26.3225 62.2554 26.3452 62.4395 26.3916C62.5873 26.4263 62.7272 26.4883 62.8522 26.5745C62.8965 26.6004 62.9339 26.6366 62.9612 26.68C62.9885 26.7235 63.0048 26.7729 63.0089 26.8241C63.0079 26.8694 62.9922 26.9132 62.9641 26.9488C62.9504 26.9682 62.9322 26.9839 62.911 26.9945C62.8897 27.0051 62.8662 27.0102 62.8425 27.0095C62.7977 27.0115 62.7535 26.9979 62.7176 26.9711C62.6835 26.9435 62.6514 26.9136 62.6216 26.8815C62.5817 26.8417 62.5351 26.8092 62.4839 26.7855C62.4078 26.7536 62.3284 26.73 62.2471 26.7151C62.1312 26.6925 62.0133 26.6818 61.8952 26.6831C61.667 26.6801 61.4428 26.7422 61.2488 26.8623C61.0577 26.9808 60.901 27.1475 60.7944 27.3455C60.6819 27.5548 60.6246 27.7894 60.628 28.027C60.6243 28.267 60.6792 28.5042 60.788 28.7182C60.8886 28.9164 61.0413 29.0834 61.2296 29.2014C61.4278 29.3215 61.6562 29.3825 61.8878 29.3773C62.0216 29.3819 62.1553 29.3668 62.2846 29.3325C62.3689 29.3067 62.4504 29.2724 62.5278 29.2301C62.5942 29.195 62.6538 29.1484 62.7039 29.0925C62.7209 29.0707 62.7428 29.0533 62.7678 29.0417C62.7928 29.03 62.8202 29.0243 62.8478 29.0252C62.8709 29.0234 62.8941 29.0268 62.9156 29.0352C62.9372 29.0435 62.9567 29.0565 62.9727 29.0733C63.0016 29.1082 63.0164 29.1527 63.0144 29.198C63.0068 29.2443 62.9895 29.2886 62.9635 29.3277C62.9376 29.3669 62.9036 29.4002 62.8639 29.4252C62.74 29.5211 62.6003 29.5948 62.4512 29.6428C62.2574 29.7077 62.054 29.739 61.8496 29.7355C61.5537 29.7419 61.2621 29.6642 61.0085 29.5115C60.7684 29.3632 60.5736 29.1519 60.4454 28.9005C60.3082 28.63 60.2392 28.3301 60.2442 28.0268C60.2406 27.7305 60.311 27.4379 60.449 27.1757C60.5824 26.9231 60.7799 26.71 61.0217 26.558C61.278 26.3991 61.5749 26.318 61.8763 26.3243ZM63.5402 26.4139H65.0313C65.0554 26.4134 65.0792 26.4181 65.1013 26.4275C65.1234 26.437 65.1432 26.451 65.1593 26.4688C65.1931 26.5041 65.2115 26.5513 65.2105 26.6001C65.2108 26.6228 65.2063 26.6453 65.1975 26.6662C65.1887 26.6871 65.1757 26.706 65.1593 26.7217C65.1426 26.7385 65.1227 26.7517 65.1006 26.7605C65.0786 26.7693 65.055 26.7735 65.0313 26.7729H63.5402C63.5158 26.7732 63.4916 26.7685 63.469 26.759C63.4465 26.7496 63.4261 26.7356 63.4091 26.718C63.3919 26.702 63.3782 26.6827 63.3688 26.6612C63.3593 26.6398 63.3544 26.6166 63.3543 26.5931C63.3538 26.5691 63.3584 26.5453 63.3679 26.5232C63.3773 26.5011 63.3914 26.4813 63.4091 26.4651C63.4444 26.4314 63.4915 26.413 63.5402 26.4139ZM64.1985 25.5116C64.2242 25.5109 64.2498 25.5156 64.2735 25.5256C64.2973 25.5355 64.3186 25.5504 64.3362 25.5692C64.3537 25.5869 64.3675 25.6079 64.377 25.6309C64.3864 25.654 64.3912 25.6787 64.391 25.7036V28.9162C64.3857 29.0083 64.4021 29.1004 64.4389 29.185C64.4644 29.2386 64.5089 29.2807 64.5638 29.3033C64.6128 29.3221 64.6649 29.3319 64.7174 29.3322C64.749 29.3326 64.7804 29.3272 64.8101 29.3163C64.8398 29.3053 64.8713 29.2999 64.903 29.3004C64.9218 29.3003 64.9403 29.3042 64.9574 29.312C64.9745 29.3197 64.9898 29.331 65.0021 29.3451C65.0305 29.3766 65.0454 29.418 65.0438 29.4603C65.0421 29.4924 65.0316 29.5233 65.0136 29.5498C64.9955 29.5763 64.9706 29.5973 64.9414 29.6106C64.8672 29.6527 64.7829 29.6737 64.6977 29.6713C64.6593 29.6713 64.6017 29.6681 64.5249 29.6617C64.4422 29.6535 64.3618 29.6296 64.2881 29.5913C64.1999 29.5431 64.1294 29.4679 64.0869 29.3768C64.0264 29.2378 63.9991 29.0866 64.007 28.9352V25.7036C64.0069 25.6787 64.0117 25.654 64.0211 25.6309C64.0305 25.6079 64.0444 25.5869 64.0619 25.5692C64.0794 25.5504 64.1007 25.5355 64.1244 25.5256C64.1482 25.5157 64.1737 25.5109 64.1994 25.5116H64.1985ZM66.2921 29.4794C66.2922 29.5045 66.2871 29.5294 66.2772 29.5525C66.2673 29.5756 66.2527 29.5965 66.2345 29.6137C66.2172 29.632 66.1964 29.6466 66.1732 29.6565C66.1501 29.6664 66.1252 29.6714 66.1001 29.6713C66.0744 29.6721 66.0488 29.6673 66.025 29.6574C66.0013 29.6475 65.9799 29.6326 65.9624 29.6137C65.9449 29.596 65.931 29.5751 65.9216 29.552C65.9122 29.529 65.9074 29.5043 65.9076 29.4794V26.5355C65.9074 26.5106 65.9122 26.4859 65.9216 26.4629C65.931 26.4398 65.9449 26.4188 65.9624 26.4011C65.9799 26.3823 66.0013 26.3674 66.025 26.3575C66.0488 26.3476 66.0744 26.3428 66.1001 26.3435C66.1258 26.3428 66.1514 26.3476 66.1751 26.3575C66.1989 26.3674 66.2202 26.3823 66.2378 26.4011C66.2553 26.4188 66.2692 26.4398 66.2786 26.4629C66.288 26.4859 66.2928 26.5106 66.2926 26.5355L66.2921 29.4794ZM66.1001 25.9138C66.0278 25.9192 65.9562 25.8976 65.899 25.8531C65.8757 25.8304 65.8576 25.8029 65.846 25.7725C65.8344 25.7421 65.8295 25.7095 65.8317 25.6771V25.6131C65.8295 25.5801 65.835 25.5471 65.8477 25.5166C65.8604 25.4861 65.8799 25.4589 65.9048 25.4372C65.9626 25.3939 66.0338 25.3723 66.1059 25.3763C66.1743 25.372 66.2418 25.3938 66.2948 25.4372C66.318 25.4599 66.336 25.4874 66.3476 25.5178C66.3592 25.5481 66.3641 25.5806 66.3619 25.6131V25.6771C66.3641 25.7095 66.3593 25.7421 66.3477 25.7725C66.3361 25.8029 66.3181 25.8304 66.2948 25.8531C66.2399 25.8973 66.1704 25.9193 66.1001 25.9148V25.9138ZM68.8327 26.3234C69.0697 26.3117 69.3047 26.3707 69.508 26.4931C69.6751 26.6044 69.8028 26.7657 69.8728 26.9539C69.9495 27.1595 69.9875 27.3775 69.9848 27.597V29.4794C69.9849 29.5045 69.9799 29.5294 69.97 29.5525C69.9601 29.5756 69.9455 29.5965 69.9272 29.6137C69.91 29.632 69.8891 29.6466 69.866 29.6565C69.8429 29.6664 69.818 29.6714 69.7929 29.6713C69.7666 29.6727 69.7404 29.6682 69.716 29.6583C69.6917 29.6483 69.6698 29.6331 69.6521 29.6137C69.6186 29.5771 69.6003 29.529 69.6009 29.4794V27.6171C69.6029 27.4575 69.5746 27.299 69.5177 27.1499C69.4641 27.0115 69.3691 26.893 69.2456 26.8107C69.0969 26.7191 68.924 26.6745 68.7495 26.6827C68.5679 26.6823 68.3889 26.7262 68.2281 26.8107C68.07 26.8908 67.933 27.007 67.8282 27.1499C67.7277 27.2849 67.6738 27.4488 67.6746 27.6171V29.4794C67.6747 29.5045 67.6696 29.5294 67.6597 29.5525C67.6498 29.5756 67.6353 29.5965 67.617 29.6137C67.5997 29.632 67.5788 29.6466 67.5557 29.6565C67.5325 29.6664 67.5076 29.6715 67.4824 29.6713C67.4561 29.6727 67.4299 29.6682 67.4056 29.6583C67.3812 29.6483 67.3594 29.6331 67.3416 29.6137C67.3081 29.5771 67.2898 29.529 67.2904 29.4794V26.6123C67.2903 26.5874 67.2951 26.5627 67.3045 26.5397C67.3139 26.5166 67.3277 26.4956 67.3453 26.4779C67.3628 26.4591 67.3842 26.4442 67.4079 26.4343C67.4316 26.4244 67.4572 26.4196 67.483 26.4203C67.5087 26.4196 67.5343 26.4244 67.558 26.4343C67.5817 26.4442 67.6031 26.4591 67.6206 26.4779C67.6382 26.4956 67.652 26.5166 67.6614 26.5397C67.6708 26.5627 67.6756 26.5874 67.6755 26.6123V27.1499L67.5283 27.3803C67.538 27.2401 67.5831 27.1048 67.6594 26.9868C67.7413 26.8577 67.844 26.743 67.9635 26.6476C68.0875 26.5468 68.2268 26.4666 68.3762 26.4099C68.5218 26.3538 68.6766 26.3247 68.8327 26.3243V26.3234ZM72.3525 26.3234C72.5341 26.3217 72.7142 26.3554 72.8828 26.4227C73.0375 26.4844 73.1812 26.5709 73.3083 26.6787C73.4211 26.7729 73.5173 26.8854 73.593 27.0115C73.6563 27.1124 73.6917 27.2283 73.6954 27.3474L73.5856 27.1938V26.5995C73.5845 26.5472 73.6043 26.4965 73.6405 26.4587C73.658 26.4399 73.6794 26.425 73.7031 26.4151C73.7269 26.4052 73.7525 26.4004 73.7782 26.4011C73.8044 26.3998 73.8307 26.4042 73.855 26.4142C73.8794 26.4242 73.9012 26.4394 73.919 26.4587C73.9532 26.4975 73.9715 26.5478 73.9702 26.5995V29.3706C73.9801 29.6724 73.907 29.9713 73.759 30.2345C73.6239 30.4637 73.4256 30.6491 73.1878 30.7684C72.9318 30.8936 72.6498 30.9563 72.365 30.9513C72.2065 30.9502 72.0487 30.9308 71.8947 30.8937C71.7486 30.8619 71.6068 30.8128 71.4723 30.7474C71.355 30.6877 71.2899 30.6258 71.277 30.5618C71.262 30.5473 71.25 30.5299 71.2418 30.5107C71.2336 30.4915 71.2293 30.4708 71.2291 30.4499C71.2313 30.4289 71.2386 30.4087 71.2503 30.3911C71.2621 30.3735 71.278 30.359 71.2966 30.3489C71.3152 30.3388 71.3359 30.3334 71.3571 30.3332C71.3783 30.3329 71.3992 30.3379 71.418 30.3475C71.4649 30.3709 71.5353 30.4018 71.6292 30.4402C71.6718 30.453 71.7294 30.4722 71.802 30.4978C71.8866 30.5266 71.9732 30.5491 72.0611 30.5651C72.1655 30.5846 72.2715 30.5943 72.3778 30.5938C72.5412 30.6039 72.705 30.5799 72.8587 30.5232C73.0124 30.4665 73.1526 30.3785 73.2704 30.2647C73.378 30.1482 73.4615 30.0116 73.516 29.8627C73.5704 29.7137 73.5948 29.5555 73.5877 29.3971V28.7827L73.6581 28.801C73.6233 28.9469 73.559 29.0841 73.4692 29.2042C73.3829 29.3182 73.2778 29.4167 73.1583 29.4954C73.039 29.5743 72.9084 29.6347 72.7711 29.6746C72.6373 29.7144 72.4985 29.7348 72.3589 29.7353C72.0783 29.7392 71.8026 29.6614 71.5654 29.5114C71.3295 29.3604 71.1367 29.151 71.0059 28.9034C70.8637 28.633 70.7921 28.3311 70.798 28.0257C70.793 27.7217 70.8645 27.4213 71.0059 27.1521C71.1351 26.9042 71.3271 26.6946 71.5626 26.5441C71.7992 26.3962 72.0735 26.3199 72.3525 26.3243V26.3234ZM72.3973 26.6818C72.1746 26.6785 71.9558 26.7396 71.7671 26.8579C71.5812 26.9755 71.4308 27.1414 71.3319 27.3379C71.2249 27.5511 71.1712 27.7872 71.1752 28.0257C71.1714 28.2653 71.2251 28.5023 71.3319 28.7169C71.4301 28.9147 71.5806 29.0818 71.7671 29.2002C71.9558 29.3183 72.1747 29.3794 72.3973 29.376C72.6186 29.3798 72.8363 29.3198 73.0245 29.2033C73.2096 29.0862 73.3599 28.9216 73.4597 28.7266C73.5697 28.5097 73.6246 28.2691 73.6197 28.0259C73.6246 27.7828 73.5697 27.5421 73.4597 27.3252C73.3605 27.1307 73.21 26.9669 73.0245 26.8517C72.8356 26.7373 72.6181 26.6787 72.3973 26.6827V26.6818ZM78.5346 25.1916C78.7567 25.1872 78.9758 25.2436 79.1681 25.3547C79.3512 25.4631 79.5016 25.6191 79.6033 25.806C79.7124 26.008 79.7675 26.2347 79.7633 26.4642C79.7669 26.6971 79.7118 26.927 79.6033 27.1331C79.5022 27.3254 79.3521 27.4877 79.1681 27.6034C78.9779 27.7204 78.758 27.7804 78.5346 27.7761H77.1778L77.2098 27.7121V29.4784C77.2099 29.5036 77.2049 29.5285 77.195 29.5516C77.1851 29.5747 77.1705 29.5956 77.1522 29.6128C77.135 29.6313 77.1142 29.646 77.0911 29.656C77.068 29.6661 77.0431 29.6713 77.0179 29.6713C76.9916 29.6727 76.9654 29.6682 76.941 29.6583C76.9167 29.6483 76.8948 29.6331 76.8771 29.6137C76.8436 29.5771 76.8253 29.529 76.8259 29.4794V25.3836C76.8258 25.3584 76.8308 25.3335 76.8408 25.3104C76.8507 25.2873 76.8652 25.2665 76.8835 25.2492C76.9007 25.2309 76.9216 25.2164 76.9447 25.2065C76.9678 25.1966 76.9927 25.1915 77.0179 25.1916H78.5346ZM78.5346 27.4059C78.6889 27.4094 78.8407 27.3659 78.9697 27.2812C79.0952 27.196 79.1956 27.0789 79.2608 26.942C79.3325 26.7934 79.3686 26.6301 79.3663 26.4651C79.3696 26.3042 79.3334 26.1449 79.2608 26.0012C79.1944 25.8711 79.0938 25.7616 78.9697 25.6844C78.8385 25.6055 78.6876 25.5656 78.5346 25.5692H77.1778L77.2098 25.5116V27.4443L77.1715 27.4059H78.5346ZM83.1935 26.4011C83.2192 26.4004 83.2448 26.4052 83.2685 26.4151C83.2923 26.425 83.3136 26.4399 83.3312 26.4587C83.3674 26.4965 83.3871 26.5472 83.386 26.5995V29.4794C83.3861 29.5045 83.3811 29.5294 83.3712 29.5525C83.3612 29.5756 83.3467 29.5965 83.3284 29.6137C83.3112 29.632 83.2903 29.6466 83.2672 29.6565C83.2441 29.6664 83.2192 29.6714 83.194 29.6713C83.1684 29.672 83.1428 29.6673 83.1191 29.6573C83.0954 29.6474 83.0741 29.6326 83.0565 29.6137C83.039 29.596 83.0252 29.5751 83.0158 29.552C83.0063 29.529 83.0016 29.5043 83.0017 29.4794V28.7178L83.1114 28.6666C83.1093 28.7949 83.0752 28.9206 83.0121 29.0323C82.9414 29.1619 82.8495 29.2787 82.7402 29.3779C82.6208 29.4873 82.4833 29.575 82.3338 29.6372C82.1744 29.7037 82.0031 29.7371 81.8304 29.7353C81.5547 29.7395 81.284 29.6616 81.0527 29.5114C80.8215 29.3587 80.6358 29.1464 80.5152 28.897C80.3822 28.6241 80.3154 28.3238 80.3201 28.0202C80.3137 27.7152 80.3818 27.4132 80.5185 27.1404C80.6414 26.8968 80.827 26.6902 81.056 26.5419C81.2853 26.396 81.5522 26.3203 81.824 26.3243C82.0003 26.323 82.1752 26.3556 82.3392 26.4203C82.494 26.4811 82.6361 26.57 82.7583 26.6827C82.8752 26.7902 82.9698 26.9196 83.0366 27.0636C83.1019 27.2027 83.1358 27.3546 83.1359 27.5083L83.0015 27.4123V26.5995C83.0004 26.5472 83.0201 26.4965 83.0564 26.4587C83.0739 26.44 83.0951 26.4251 83.1188 26.4152C83.1424 26.4053 83.1679 26.4005 83.1935 26.4011ZM81.8624 29.377C82.0761 29.3806 82.2859 29.3193 82.4639 29.2011C82.6428 29.0791 82.7854 28.911 82.8766 28.7147C82.9792 28.4976 83.0307 28.2599 83.0271 28.0199C83.0309 27.7851 82.9793 27.5527 82.8766 27.3415C82.7829 27.1485 82.6407 26.9832 82.4639 26.8615C82.2866 26.7413 82.0766 26.6788 81.8624 26.6824C81.6503 26.6796 81.4421 26.7397 81.2641 26.8551C81.0852 26.9725 80.9414 27.1361 80.8481 27.3287C80.7446 27.5441 80.6931 27.7809 80.6978 28.0199C80.6942 28.2599 80.7456 28.4976 80.8481 28.7147C80.9394 28.9111 81.0821 29.0791 81.261 29.2011C81.439 29.3193 81.6487 29.3806 81.8624 29.377ZM84.179 26.4139H85.6702C85.6942 26.4134 85.718 26.4181 85.7401 26.4275C85.7622 26.437 85.782 26.451 85.7982 26.4688C85.8319 26.5041 85.8503 26.5513 85.8493 26.6001C85.8496 26.6228 85.8452 26.6453 85.8363 26.6662C85.8275 26.6871 85.8145 26.706 85.7982 26.7217C85.7814 26.7385 85.7615 26.7517 85.7395 26.7605C85.7174 26.7693 85.6939 26.7735 85.6702 26.7729H84.179C84.1546 26.7732 84.1304 26.7685 84.1078 26.759C84.0853 26.7496 84.0649 26.7356 84.0479 26.718C84.0308 26.702 84.017 26.6827 84.0076 26.6612C83.9981 26.6398 83.9932 26.6166 83.9931 26.5931C83.9926 26.5691 83.9972 26.5453 84.0067 26.5232C84.0161 26.5011 84.0302 26.4813 84.0479 26.4651C84.0832 26.4314 84.1303 26.413 84.179 26.4139ZM84.8373 25.5116C84.863 25.5109 84.8886 25.5156 84.9123 25.5256C84.9361 25.5355 84.9574 25.5504 84.975 25.5692C84.9925 25.5869 85.0064 25.6079 85.0158 25.6309C85.0252 25.654 85.03 25.6787 85.0298 25.7036V28.9162C85.0245 29.0083 85.0409 29.1004 85.0777 29.185C85.1032 29.2386 85.1477 29.2807 85.2026 29.3033C85.2517 29.3221 85.3037 29.3319 85.3562 29.3322C85.3878 29.3326 85.4193 29.3272 85.4489 29.3163C85.4786 29.3053 85.5101 29.2999 85.5418 29.3004C85.5606 29.3003 85.5791 29.3042 85.5962 29.312C85.6133 29.3197 85.6286 29.331 85.6409 29.3451C85.6693 29.3766 85.6843 29.418 85.6826 29.4603C85.6809 29.4924 85.6704 29.5233 85.6524 29.5498C85.6343 29.5763 85.6094 29.5973 85.5802 29.6106C85.5063 29.6526 85.4223 29.6735 85.3374 29.6713C85.299 29.6713 85.2414 29.6681 85.1646 29.6617C85.0819 29.6535 85.0015 29.6296 84.9278 29.5913C84.8396 29.5431 84.7691 29.4679 84.7267 29.3768C84.6661 29.2378 84.6388 29.0866 84.6468 28.9352V25.7036C84.6466 25.6787 84.6514 25.654 84.6608 25.6309C84.6702 25.6079 84.6841 25.5869 84.7016 25.5692C84.719 25.5505 84.7402 25.5357 84.7638 25.5258C84.7873 25.5159 84.8127 25.511 84.8382 25.5116H84.8373ZM86.9318 29.4794C86.9319 29.5045 86.9268 29.5294 86.9169 29.5525C86.907 29.5756 86.8925 29.5965 86.8742 29.6137C86.8569 29.632 86.8361 29.6466 86.813 29.6565C86.7899 29.6664 86.765 29.6714 86.7398 29.6713C86.7141 29.6721 86.6885 29.6673 86.6648 29.6574C86.641 29.6475 86.6197 29.6326 86.6021 29.6137C86.5846 29.596 86.5707 29.5751 86.5613 29.552C86.5519 29.529 86.5471 29.5043 86.5473 29.4794V26.5355C86.5471 26.5106 86.5519 26.4859 86.5613 26.4629C86.5707 26.4398 86.5846 26.4188 86.6021 26.4011C86.6197 26.3823 86.641 26.3674 86.6648 26.3575C86.6885 26.3476 86.7141 26.3428 86.7398 26.3435C86.7655 26.3428 86.7911 26.3476 86.8149 26.3575C86.8386 26.3674 86.86 26.3823 86.8775 26.4011C86.895 26.4188 86.9089 26.4398 86.9183 26.4629C86.9277 26.4859 86.9325 26.5106 86.9324 26.5355L86.9318 29.4794ZM86.7398 25.9138C86.6676 25.9192 86.5959 25.8976 86.5387 25.8531C86.5154 25.8304 86.4974 25.8029 86.4857 25.7725C86.4741 25.7421 86.4692 25.7095 86.4714 25.6771V25.6131C86.4693 25.5801 86.4748 25.5471 86.4874 25.5166C86.5001 25.4861 86.5197 25.4589 86.5445 25.4372C86.6023 25.3939 86.6735 25.3723 86.7457 25.3763C86.8141 25.372 86.8815 25.3938 86.9345 25.4372C86.9578 25.4599 86.9758 25.4874 86.9874 25.5178C86.9989 25.5481 87.0038 25.5806 87.0016 25.6131V25.6771C87.0038 25.7095 86.999 25.7421 86.9874 25.7725C86.9758 25.8029 86.9578 25.8304 86.9345 25.8531C86.8794 25.8976 86.8095 25.9196 86.7389 25.9148L86.7398 25.9138ZM89.4075 29.7353C89.104 29.7415 88.8041 29.6687 88.5372 29.5242C88.2894 29.3873 88.0853 29.1832 87.9484 28.9354C87.8028 28.6642 87.7301 28.3599 87.7372 28.0522C87.7278 27.7296 87.8016 27.41 87.9517 27.1243C88.0822 26.8816 88.2742 26.6774 88.5085 26.5324C88.7265 26.3966 88.9781 26.3246 89.2349 26.3243C89.4218 26.3242 89.6071 26.3579 89.782 26.4236C89.958 26.4891 90.119 26.5892 90.2556 26.718C90.3976 26.8529 90.5108 27.0151 90.5884 27.1949C90.6757 27.4016 90.7225 27.6232 90.7261 27.8476C90.7222 27.8979 90.6993 27.9448 90.6621 27.9787C90.6444 27.9963 90.6234 28.0101 90.6003 28.0195C90.5773 28.0289 90.5526 28.0337 90.5277 28.0336H87.9612L87.8844 27.688H90.4059L90.3227 27.7648V27.6368C90.3111 27.4508 90.2443 27.2726 90.1307 27.1248C90.0242 26.9875 89.8862 26.8777 89.7284 26.8049C89.5738 26.733 89.4053 26.6958 89.2348 26.6961C89.1 26.6974 88.9666 26.7234 88.8413 26.7729C88.704 26.826 88.5796 26.9078 88.4765 27.0129C88.3608 27.1323 88.2705 27.2738 88.2108 27.4289C88.1385 27.62 88.1038 27.8232 88.1084 28.0274C88.1051 28.2645 88.1577 28.4991 88.262 28.7121C88.361 28.9132 88.5153 29.0819 88.7067 29.1985C88.9169 29.3223 89.1577 29.3844 89.4015 29.3777C89.5383 29.3796 89.6743 29.3579 89.8038 29.3137C89.9168 29.2745 90.0227 29.2172 90.1174 29.144C90.2007 29.0798 90.2759 29.0057 90.3413 28.9233C90.3801 28.8882 90.4299 28.8678 90.4821 28.8657C90.5034 28.8658 90.5243 28.8704 90.5436 28.8792C90.5629 28.8881 90.5801 28.9009 90.594 28.9169C90.6246 28.9475 90.6418 28.9889 90.6421 29.0321C90.6419 29.0578 90.6361 29.0832 90.625 29.1064C90.614 29.1296 90.598 29.1501 90.5781 29.1665C90.4382 29.3298 90.2688 29.4655 90.079 29.5666C89.8733 29.6795 89.6421 29.7376 89.4075 29.7353ZM93.0873 26.3243C93.3242 26.3126 93.5592 26.3717 93.7624 26.494C93.9299 26.6052 94.0579 26.7665 94.1281 26.9548C94.2048 27.1604 94.2427 27.3784 94.24 27.5979V29.4794C94.2401 29.5045 94.235 29.5294 94.2251 29.5525C94.2152 29.5756 94.2007 29.5965 94.1824 29.6137C94.1651 29.632 94.1443 29.6466 94.1212 29.6565C94.0981 29.6664 94.0732 29.6714 94.048 29.6713C94.0218 29.6727 93.9955 29.6682 93.9712 29.6583C93.9468 29.6483 93.925 29.6331 93.9072 29.6137C93.8737 29.5771 93.8554 29.529 93.856 29.4794V27.6171C93.858 27.4575 93.8298 27.299 93.7728 27.1499C93.7193 27.0115 93.6242 26.893 93.5008 26.8107C93.3521 26.7192 93.1793 26.6746 93.0049 26.6827C92.8232 26.6823 92.6441 26.7262 92.4832 26.8107C92.3251 26.8908 92.1882 27.007 92.0833 27.1499C91.9828 27.2849 91.9289 27.4488 91.9297 27.6171V29.4794C91.9298 29.5045 91.9248 29.5294 91.9148 29.5525C91.9049 29.5756 91.8904 29.5965 91.8721 29.6137C91.8548 29.6321 91.8338 29.6467 91.8106 29.6566C91.7873 29.6665 91.7623 29.6715 91.737 29.6713C91.7108 29.6727 91.6845 29.6682 91.6602 29.6583C91.6358 29.6483 91.614 29.6331 91.5962 29.6137C91.5627 29.5771 91.5444 29.529 91.545 29.4794V26.6123C91.5449 26.5874 91.5497 26.5627 91.5591 26.5397C91.5685 26.5166 91.5824 26.4956 91.5999 26.4779C91.6174 26.4591 91.6388 26.4442 91.6625 26.4343C91.6863 26.4244 91.7118 26.4196 91.7376 26.4203C91.7633 26.4196 91.7889 26.4244 91.8126 26.4343C91.8364 26.4442 91.8577 26.4591 91.8752 26.4779C91.8928 26.4956 91.9066 26.5166 91.916 26.5397C91.9255 26.5627 91.9302 26.5874 91.9301 26.6123V27.1499L91.7838 27.3803C91.7935 27.2401 91.8387 27.1048 91.9149 26.9868C91.9968 26.8577 92.0995 26.743 92.219 26.6476C92.343 26.5468 92.4824 26.4666 92.6319 26.4099C92.7772 26.3539 92.9316 26.3249 93.0873 26.3243ZM95.0328 26.4139H96.5239C96.5479 26.4134 96.5718 26.4181 96.5939 26.4275C96.6159 26.437 96.6357 26.451 96.6519 26.4688C96.6857 26.5041 96.7041 26.5513 96.7031 26.6001C96.7034 26.6228 96.6989 26.6453 96.6901 26.6662C96.6813 26.6871 96.6683 26.706 96.6519 26.7217C96.6352 26.7385 96.6152 26.7517 96.5932 26.7605C96.5712 26.7693 96.5476 26.7735 96.5239 26.7729H95.0319C95.0075 26.7732 94.9832 26.7685 94.9607 26.759C94.9381 26.7496 94.9178 26.7356 94.9008 26.718C94.8836 26.702 94.8699 26.6827 94.8604 26.6612C94.851 26.6398 94.8461 26.6166 94.846 26.5931C94.8454 26.5691 94.8501 26.5453 94.8595 26.5232C94.869 26.5011 94.8831 26.4813 94.9008 26.4651C94.936 26.4314 94.9832 26.413 95.0319 26.4139H95.0328ZM95.692 25.5116C95.7177 25.5109 95.7433 25.5156 95.767 25.5256C95.7908 25.5355 95.8121 25.5504 95.8297 25.5692C95.8472 25.5869 95.8611 25.6079 95.8705 25.6309C95.8799 25.654 95.8847 25.6787 95.8845 25.7036V28.9162C95.8792 29.0083 95.8956 29.1004 95.9324 29.185C95.9579 29.2385 96.0023 29.2807 96.0571 29.3033C96.1062 29.3221 96.1582 29.3319 96.2107 29.3322C96.2424 29.3327 96.2739 29.3273 96.3036 29.3163C96.3333 29.3053 96.3648 29.2999 96.3965 29.3004C96.4153 29.3003 96.4339 29.3042 96.451 29.3119C96.4681 29.3197 96.4834 29.331 96.4958 29.3451C96.5241 29.3767 96.539 29.418 96.5373 29.4603C96.5356 29.4924 96.5251 29.5233 96.5071 29.5498C96.489 29.5763 96.4641 29.5973 96.4349 29.6106C96.3607 29.6527 96.2764 29.6737 96.1912 29.6713C96.1528 29.6713 96.0952 29.6681 96.0184 29.6617C95.9354 29.6536 95.8547 29.6297 95.7807 29.5913C95.6925 29.5431 95.622 29.4679 95.5795 29.3768C95.519 29.2378 95.4916 29.0866 95.4996 28.9352V25.7036C95.4995 25.6787 95.5043 25.654 95.5137 25.6309C95.5231 25.6079 95.537 25.5869 95.5545 25.5692C95.572 25.5504 95.5933 25.5355 95.617 25.5256C95.6407 25.5157 95.6663 25.5109 95.692 25.5116ZM97.3559 29.153C97.3241 29.1094 97.3072 29.0566 97.3078 29.0027C97.3094 28.9776 97.3177 28.9534 97.3318 28.9326C97.3459 28.9118 97.3652 28.8951 97.3879 28.8842C97.4038 28.8697 97.4226 28.8588 97.443 28.8522C97.4634 28.8456 97.485 28.8434 97.5064 28.8458C97.5542 28.8516 97.5984 28.8743 97.6311 28.9098C97.7446 29.0577 97.8872 29.1807 98.0502 29.2713C98.2301 29.3667 98.4316 29.4141 98.6353 29.4088C98.7563 29.4086 98.8763 29.388 98.9905 29.3481C99.1016 29.3115 99.2017 29.2477 99.2816 29.1625C99.3597 29.0758 99.4011 28.9622 99.3968 28.8456C99.4022 28.7279 99.3608 28.6129 99.2816 28.5256C99.198 28.4401 99.0963 28.3745 98.984 28.3336C98.8577 28.2853 98.7286 28.2447 98.5974 28.2122C98.4524 28.1738 98.3116 28.1301 98.175 28.0809C98.0465 28.036 97.9248 27.9736 97.8134 27.8954C97.7112 27.8232 97.6252 27.7306 97.5607 27.6235C97.4936 27.5046 97.4603 27.3695 97.4647 27.2331C97.4614 27.0636 97.5127 26.8976 97.611 26.7595C97.7136 26.6193 97.8517 26.5089 98.011 26.4395C98.1914 26.3603 98.3869 26.321 98.5839 26.3243C98.7003 26.3255 98.8162 26.3395 98.9295 26.366C99.0567 26.3951 99.1795 26.4413 99.2942 26.5035C99.4166 26.5699 99.5252 26.6589 99.6142 26.7659C99.6323 26.7827 99.6467 26.803 99.6566 26.8255C99.6665 26.8481 99.6717 26.8724 99.6718 26.897C99.6714 26.9222 99.6654 26.947 99.6543 26.9697C99.6433 26.9923 99.6274 27.0123 99.6078 27.0281C99.5738 27.0537 99.5321 27.0672 99.4895 27.0665C99.4682 27.0669 99.4471 27.0625 99.4277 27.0536C99.4083 27.0448 99.3911 27.0317 99.3774 27.0153C99.2771 26.9016 99.1524 26.8119 99.0127 26.7529C98.8688 26.6926 98.7142 26.6621 98.5583 26.6633C98.4393 26.6625 98.3211 26.6831 98.2094 26.7242C98.1051 26.7619 98.0117 26.8247 97.9375 26.9071C97.8618 26.996 97.8226 27.1104 97.8278 27.2271C97.8317 27.3403 97.8786 27.4479 97.9589 27.5278C98.0497 27.612 98.1563 27.6772 98.2725 27.7198C98.4159 27.7753 98.5624 27.8223 98.7113 27.8606C98.8447 27.8938 98.976 27.9344 99.1048 27.9822C99.2233 28.0252 99.3353 28.0844 99.4376 28.1581C99.5334 28.2283 99.6121 28.3191 99.668 28.4238C99.7296 28.5487 99.7593 28.6869 99.7545 28.826C99.7585 29.0012 99.7033 29.1726 99.5976 29.3124C99.4884 29.4525 99.3437 29.5608 99.1785 29.626C98.9939 29.7005 98.7964 29.7376 98.5974 29.7353C98.3677 29.7355 98.1403 29.6898 97.9286 29.601C97.7025 29.5031 97.5053 29.3489 97.3559 29.153ZM106.175 26.3307C106.223 26.3313 106.27 26.3495 106.306 26.3819C106.326 26.3992 106.342 26.4209 106.352 26.4453C106.363 26.4697 106.368 26.4962 106.366 26.5227C106.366 26.5379 106.364 26.5529 106.36 26.5675C106.357 26.5807 106.353 26.5936 106.347 26.6059L105.363 29.5498C105.346 29.5879 105.318 29.6202 105.283 29.6425C105.25 29.665 105.21 29.6752 105.171 29.6712C105.134 29.6693 105.098 29.6569 105.067 29.6354C105.036 29.6138 105.013 29.5841 104.998 29.5496L104.096 27.4249L104.211 27.4505L103.41 29.5498C103.397 29.585 103.373 29.6154 103.342 29.637C103.311 29.6587 103.275 29.6707 103.237 29.6713C103.197 29.6751 103.156 29.665 103.122 29.6426C103.086 29.6221 103.059 29.5891 103.045 29.5499L102.034 26.6061C102.022 26.5799 102.016 26.5516 102.016 26.5229C102.015 26.4975 102.02 26.4721 102.029 26.4485C102.038 26.4248 102.053 26.4034 102.071 26.3854C102.09 26.3669 102.112 26.3525 102.137 26.3431C102.162 26.3337 102.188 26.3294 102.215 26.3306C102.252 26.3303 102.289 26.3415 102.32 26.3626C102.353 26.3855 102.377 26.4195 102.387 26.4585L103.296 29.1848L103.175 29.1784L103.999 27.0987C104.011 27.0618 104.036 27.0301 104.068 27.0081C104.1 26.9862 104.139 26.9753 104.178 26.9771C104.217 26.9758 104.255 26.987 104.288 27.0091C104.319 27.032 104.343 27.063 104.358 27.0987L105.235 29.185L105.094 29.1914L105.995 26.4587C106.005 26.4195 106.028 26.3849 106.061 26.3614C106.094 26.3379 106.134 26.327 106.175 26.3307ZM107.474 29.4794C107.474 29.5045 107.469 29.5294 107.459 29.5525C107.449 29.5756 107.434 29.5965 107.416 29.6137C107.399 29.6319 107.378 29.6464 107.355 29.6563C107.332 29.6662 107.308 29.6713 107.283 29.6713C107.257 29.6721 107.231 29.6673 107.208 29.6574C107.184 29.6475 107.162 29.6326 107.145 29.6137C107.127 29.596 107.114 29.5751 107.104 29.552C107.095 29.529 107.09 29.5043 107.09 29.4794V26.5355C107.09 26.5106 107.095 26.4859 107.104 26.4629C107.114 26.4398 107.127 26.4188 107.145 26.4011C107.162 26.3823 107.184 26.3674 107.208 26.3575C107.231 26.3476 107.257 26.3428 107.283 26.3435C107.308 26.3428 107.334 26.3476 107.358 26.3575C107.381 26.3674 107.403 26.3823 107.42 26.4011C107.438 26.4188 107.452 26.4398 107.461 26.4629C107.471 26.4859 107.475 26.5106 107.475 26.5355L107.474 29.4794ZM107.282 25.9138C107.209 25.9192 107.138 25.8976 107.081 25.8531C107.057 25.8304 107.039 25.8029 107.028 25.7725C107.016 25.7421 107.011 25.7095 107.013 25.6771V25.6131C107.011 25.5801 107.017 25.5471 107.03 25.5166C107.042 25.4861 107.062 25.4589 107.087 25.4372C107.144 25.3939 107.216 25.3723 107.288 25.3763C107.356 25.372 107.424 25.3938 107.477 25.4372C107.5 25.4599 107.518 25.4874 107.529 25.5178C107.541 25.5481 107.546 25.5806 107.544 25.6131V25.6771C107.546 25.7095 107.541 25.7421 107.529 25.7725C107.518 25.8029 107.5 25.8304 107.477 25.8531C107.422 25.8972 107.353 25.9191 107.283 25.9148L107.282 25.9138ZM108.261 26.413H109.752C109.776 26.4125 109.8 26.4171 109.822 26.4266C109.844 26.4361 109.864 26.4501 109.88 26.4679C109.914 26.5031 109.932 26.5503 109.931 26.5992C109.931 26.6218 109.927 26.6443 109.918 26.6653C109.909 26.6862 109.896 26.7051 109.88 26.7208C109.863 26.7376 109.843 26.7508 109.821 26.7596C109.799 26.7684 109.776 26.7726 109.752 26.7719H108.261C108.236 26.7722 108.212 26.7675 108.19 26.7581C108.167 26.7487 108.147 26.7347 108.13 26.7171C108.113 26.7011 108.099 26.6818 108.089 26.6603C108.08 26.6389 108.075 26.6157 108.075 26.5922C108.074 26.5682 108.079 26.5444 108.088 26.5223C108.098 26.5002 108.112 26.4804 108.13 26.4642C108.165 26.4308 108.212 26.4128 108.261 26.4139V26.413ZM108.92 25.5107C108.946 25.5099 108.971 25.5147 108.995 25.5246C109.019 25.5346 109.04 25.5494 109.058 25.5683C109.075 25.586 109.089 25.6069 109.099 25.63C109.108 25.6531 109.113 25.6778 109.113 25.7027V28.9162C109.107 29.0083 109.124 29.1004 109.16 29.185C109.186 29.2385 109.23 29.2807 109.285 29.3033C109.334 29.3221 109.386 29.3319 109.439 29.3322C109.47 29.3327 109.502 29.3273 109.532 29.3163C109.561 29.3053 109.593 29.2999 109.625 29.3004C109.643 29.3003 109.662 29.3042 109.679 29.3119C109.696 29.3197 109.711 29.331 109.724 29.3451C109.752 29.3767 109.767 29.418 109.765 29.4603C109.764 29.4924 109.753 29.5233 109.735 29.5498C109.717 29.5763 109.692 29.5973 109.663 29.6106C109.589 29.6526 109.505 29.6736 109.42 29.6713C109.381 29.6713 109.324 29.6681 109.247 29.6617C109.164 29.6536 109.083 29.6297 109.009 29.5913C108.921 29.5431 108.851 29.4679 108.808 29.3768C108.748 29.2378 108.72 29.0866 108.728 28.9352V25.7036C108.728 25.6787 108.733 25.654 108.742 25.6309C108.752 25.6079 108.766 25.5869 108.783 25.5692C108.801 25.5504 108.822 25.5356 108.845 25.5257C108.869 25.5158 108.894 25.511 108.92 25.5116V25.5107ZM112.133 26.3746C112.363 26.364 112.591 26.4243 112.785 26.5474C112.952 26.6628 113.08 26.8256 113.153 27.0146C113.235 27.2225 113.275 27.4442 113.272 27.6673V29.4775C113.272 29.5027 113.267 29.5276 113.257 29.5507C113.247 29.5738 113.232 29.5946 113.214 29.6119C113.197 29.6306 113.176 29.6456 113.153 29.6558C113.129 29.666 113.104 29.6713 113.079 29.6713C113.053 29.6727 113.026 29.6682 113.002 29.6583C112.978 29.6483 112.956 29.6331 112.938 29.6137C112.905 29.5771 112.886 29.529 112.887 29.4794V27.6692C112.889 27.5078 112.862 27.3473 112.807 27.1956C112.758 27.0594 112.667 26.9417 112.549 26.8588C112.405 26.769 112.238 26.7254 112.069 26.7339C111.891 26.7334 111.717 26.7763 111.56 26.8588C111.405 26.9373 111.272 27.0527 111.173 27.1947C111.075 27.3332 111.024 27.4989 111.026 27.6683V29.4784C111.026 29.5036 111.021 29.5285 111.011 29.5516C111.001 29.5747 110.986 29.5956 110.968 29.6128C110.951 29.6313 110.93 29.646 110.907 29.656C110.884 29.6661 110.859 29.6713 110.834 29.6713C110.807 29.6727 110.781 29.6682 110.757 29.6583C110.732 29.6483 110.711 29.6331 110.693 29.6137C110.659 29.5771 110.641 29.529 110.642 29.4794V25.1276C110.641 25.1027 110.646 25.078 110.656 25.055C110.665 25.0319 110.679 25.0109 110.696 24.9932C110.714 24.9744 110.735 24.9595 110.759 24.9496C110.783 24.9397 110.808 24.9349 110.834 24.9356C110.86 24.9349 110.885 24.9397 110.909 24.9496C110.933 24.9595 110.954 24.9744 110.972 24.9932C110.989 25.0109 111.003 25.0319 111.013 25.055C111.022 25.078 111.027 25.1027 111.027 25.1276V27.2011L110.88 27.4251C110.89 27.2879 110.933 27.1552 111.005 27.038C111.082 26.9092 111.181 26.7946 111.296 26.6988C111.415 26.5987 111.549 26.5184 111.693 26.4611C111.833 26.4049 111.982 26.3759 112.133 26.3755V26.3746ZM117.944 25.1907C118.23 25.1842 118.514 25.2456 118.772 25.3699C119.004 25.4856 119.205 25.6557 119.357 25.8658C119.514 26.0832 119.63 26.3271 119.7 26.5858C119.775 26.861 119.813 27.1452 119.811 27.4306C119.816 27.8143 119.748 28.1954 119.61 28.5536C119.487 28.8777 119.274 29.1597 118.996 29.3664C118.687 29.5794 118.318 29.6865 117.944 29.6713H116.312C116.286 29.6714 116.262 29.6664 116.238 29.6565C116.215 29.6466 116.194 29.632 116.177 29.6137C116.159 29.5965 116.144 29.5756 116.134 29.5525C116.125 29.5294 116.12 29.5045 116.12 29.4794V25.3836C116.12 25.3584 116.125 25.3335 116.134 25.3104C116.144 25.2873 116.159 25.2665 116.177 25.2492C116.194 25.2309 116.215 25.2164 116.238 25.2065C116.262 25.1966 116.286 25.1915 116.312 25.1916L117.944 25.1907ZM117.88 29.2929C118.191 29.3082 118.499 29.2208 118.756 29.0442C118.982 28.8721 119.153 28.6373 119.246 28.3689C119.353 28.0681 119.406 27.7507 119.403 27.4313C119.404 27.1928 119.375 26.9552 119.316 26.724C119.263 26.511 119.172 26.3093 119.047 26.1289C118.925 25.9557 118.763 25.8151 118.574 25.7193C118.358 25.6141 118.119 25.5625 117.879 25.569H116.478L116.523 25.5114V29.3578L116.484 29.2938L117.88 29.2929ZM123.722 28.033C123.727 28.3375 123.655 28.6381 123.511 28.9067C123.377 29.1576 123.178 29.3676 122.934 29.5146C122.683 29.6639 122.395 29.7403 122.103 29.7353C121.814 29.7391 121.529 29.6628 121.28 29.5146C121.035 29.3678 120.834 29.1578 120.698 28.9067C120.553 28.6387 120.479 28.3378 120.484 28.033C120.478 27.7268 120.552 27.4244 120.699 27.1554C120.836 26.9051 121.037 26.6955 121.281 26.5474C121.529 26.3973 121.814 26.3197 122.104 26.3234C122.397 26.3184 122.685 26.396 122.936 26.5474C123.178 26.6957 123.377 26.9055 123.512 27.1554C123.656 27.4251 123.728 27.7273 123.722 28.033ZM123.338 28.033C123.343 27.7918 123.288 27.5532 123.178 27.3382C123.078 27.142 122.926 26.9763 122.74 26.8583C122.549 26.7394 122.328 26.6783 122.103 26.6822C121.881 26.6797 121.664 26.7408 121.476 26.8583C121.288 26.976 121.134 27.1417 121.031 27.3382C120.919 27.5525 120.863 27.7914 120.868 28.033C120.863 28.2735 120.919 28.5113 121.031 28.7242C121.135 28.9195 121.288 29.0839 121.476 29.2011C121.664 29.3184 121.881 29.3795 122.103 29.377C122.328 29.3809 122.549 29.3198 122.74 29.2011C122.925 29.0837 123.077 28.9192 123.178 28.7242C123.288 28.5106 123.343 28.2731 123.338 28.033ZM125.981 26.3243C126.171 26.3225 126.361 26.3452 126.545 26.3916C126.692 26.4263 126.832 26.4883 126.957 26.5745C127.002 26.6004 127.039 26.6366 127.066 26.68C127.094 26.7235 127.11 26.7729 127.114 26.8241C127.113 26.8694 127.097 26.9132 127.069 26.9488C127.056 26.9682 127.037 26.9839 127.016 26.9945C126.995 27.0051 126.971 27.0102 126.948 27.0095C126.903 27.0115 126.859 26.9979 126.823 26.9711C126.789 26.9435 126.757 26.9136 126.727 26.8815C126.687 26.8417 126.641 26.8092 126.589 26.7855C126.513 26.7536 126.434 26.73 126.353 26.7151C126.237 26.6925 126.119 26.6818 126.001 26.6831C125.773 26.6801 125.548 26.7422 125.354 26.8623C125.163 26.9808 125.006 27.1475 124.9 27.3455C124.787 27.5548 124.73 27.7894 124.734 28.027C124.73 28.267 124.785 28.5042 124.894 28.7182C124.994 28.9164 125.147 29.0834 125.335 29.2014C125.533 29.3215 125.762 29.3825 125.993 29.3773C126.127 29.3819 126.261 29.3668 126.39 29.3325C126.474 29.3067 126.556 29.2724 126.633 29.2301C126.7 29.195 126.76 29.1482 126.811 29.0921C126.828 29.0704 126.85 29.0529 126.875 29.0413C126.9 29.0296 126.927 29.0239 126.955 29.0248C126.978 29.0231 127.001 29.0265 127.022 29.0348C127.044 29.0431 127.064 29.0561 127.079 29.0729C127.108 29.1078 127.123 29.1523 127.121 29.1976C127.114 29.244 127.096 29.2882 127.07 29.3274C127.044 29.3666 127.01 29.3998 126.971 29.4249C126.847 29.5208 126.707 29.5944 126.558 29.6425C126.364 29.7073 126.161 29.7386 125.956 29.7352C125.66 29.7415 125.369 29.6639 125.115 29.5112C124.875 29.3629 124.68 29.1515 124.552 28.9001C124.415 28.6296 124.346 28.3297 124.351 28.0265C124.347 27.7301 124.418 27.4376 124.556 27.1753C124.689 26.9227 124.887 26.7096 125.129 26.5577C125.384 26.3993 125.681 26.3182 125.981 26.3243ZM127.645 26.4139H129.136C129.16 26.4134 129.184 26.4181 129.206 26.4275C129.228 26.437 129.248 26.451 129.264 26.4688C129.298 26.5041 129.317 26.5513 129.316 26.6001C129.316 26.6228 129.311 26.6453 129.303 26.6662C129.294 26.6871 129.281 26.706 129.264 26.7217C129.248 26.7385 129.228 26.7517 129.206 26.7605C129.184 26.7693 129.16 26.7735 129.136 26.7729H127.645C127.621 26.7732 127.597 26.7685 127.574 26.759C127.552 26.7496 127.531 26.7356 127.514 26.718C127.497 26.702 127.483 26.6827 127.474 26.6612C127.464 26.6398 127.46 26.6166 127.459 26.5931C127.459 26.5691 127.464 26.5453 127.473 26.5232C127.482 26.5011 127.497 26.4813 127.514 26.4651C127.549 26.4314 127.597 26.413 127.645 26.4139ZM128.305 25.5116C128.33 25.5109 128.356 25.5156 128.38 25.5256C128.403 25.5355 128.425 25.5504 128.442 25.5692C128.46 25.5869 128.474 25.6079 128.483 25.6309C128.492 25.654 128.497 25.6787 128.497 25.7036V28.9162C128.492 29.0083 128.508 29.1004 128.545 29.185C128.57 29.2385 128.615 29.2807 128.67 29.3033C128.719 29.3221 128.771 29.3319 128.823 29.3322C128.855 29.3327 128.886 29.3273 128.916 29.3163C128.946 29.3053 128.977 29.2999 129.009 29.3004C129.028 29.3003 129.046 29.3042 129.064 29.3119C129.081 29.3197 129.096 29.331 129.108 29.3451C129.137 29.3767 129.152 29.418 129.15 29.4603C129.148 29.4924 129.138 29.5233 129.12 29.5498C129.102 29.5763 129.077 29.5973 129.047 29.6106C128.973 29.6527 128.889 29.6737 128.804 29.6713C128.765 29.6713 128.708 29.6681 128.631 29.6617C128.548 29.6536 128.467 29.6297 128.393 29.5913C128.305 29.5431 128.234 29.4679 128.192 29.3768C128.132 29.2378 128.104 29.0866 128.112 28.9352V25.7036C128.112 25.6787 128.117 25.654 128.126 25.6309C128.136 25.6079 128.149 25.5869 128.167 25.5692C128.185 25.5504 128.206 25.5355 128.23 25.5256C128.253 25.5157 128.279 25.5109 128.305 25.5116ZM133.04 28.033C133.045 28.3375 132.972 28.6381 132.829 28.9067C132.695 29.1574 132.496 29.3675 132.253 29.5146C132.002 29.664 131.714 29.7405 131.421 29.7353C131.132 29.7391 130.847 29.6628 130.598 29.5146C130.353 29.3678 130.152 29.1578 130.016 28.9067C129.871 28.6387 129.797 28.3378 129.802 28.033C129.796 27.7268 129.87 27.4244 130.017 27.1554C130.154 26.9051 130.355 26.6955 130.599 26.5474C130.847 26.3973 131.132 26.3197 131.422 26.3234C131.715 26.3184 132.003 26.396 132.254 26.5474C132.496 26.6957 132.695 26.9055 132.83 27.1554C132.974 27.4251 133.046 27.7273 133.04 28.033ZM132.656 28.033C132.661 27.7918 132.606 27.5532 132.496 27.3382C132.395 27.142 132.244 26.9763 132.057 26.8583C131.867 26.7394 131.646 26.6783 131.421 26.6822C131.199 26.6797 130.982 26.7408 130.794 26.8583C130.605 26.976 130.452 27.1417 130.349 27.3382C130.237 27.5525 130.181 27.7914 130.186 28.033C130.181 28.2735 130.237 28.5113 130.349 28.7242C130.453 28.9195 130.606 29.0839 130.794 29.2011C130.982 29.3184 131.199 29.3795 131.421 29.377C131.646 29.3809 131.867 29.3198 132.057 29.2011C132.243 29.0837 132.395 28.9192 132.496 28.7242C132.606 28.5106 132.661 28.2731 132.656 28.033ZM134.051 29.6713C134.025 29.6727 133.999 29.6682 133.975 29.6583C133.95 29.6483 133.928 29.6331 133.911 29.6137C133.877 29.5771 133.859 29.529 133.859 29.4794V26.6123C133.859 26.5874 133.864 26.5627 133.873 26.5397C133.883 26.5166 133.897 26.4956 133.914 26.4779C133.932 26.4591 133.953 26.4442 133.977 26.4343C134.001 26.4244 134.026 26.4196 134.052 26.4203C134.078 26.4196 134.103 26.4244 134.127 26.4343C134.151 26.4442 134.172 26.4591 134.19 26.4779C134.207 26.4956 134.221 26.5166 134.23 26.5397C134.24 26.5627 134.245 26.5874 134.244 26.6123V27.5723L134.148 27.5915C134.162 27.4383 134.2 27.2882 134.261 27.1468C134.323 26.9988 134.408 26.8616 134.513 26.7403C134.62 26.6167 134.749 26.5146 134.894 26.4395C135.048 26.3613 135.218 26.3217 135.39 26.3243C135.467 26.3245 135.544 26.3408 135.614 26.3724C135.646 26.3837 135.674 26.405 135.694 26.4332C135.713 26.4614 135.724 26.495 135.723 26.5293C135.725 26.556 135.721 26.5828 135.712 26.6081C135.703 26.6334 135.69 26.6567 135.672 26.6765C135.656 26.6929 135.637 26.7059 135.616 26.7147C135.595 26.7235 135.573 26.7279 135.55 26.7277C135.507 26.7264 135.464 26.7155 135.425 26.6957C135.37 26.6723 135.31 26.6614 135.249 26.6637C135.123 26.6658 134.999 26.7024 134.891 26.7694C134.766 26.8443 134.656 26.9407 134.565 27.0541C134.466 27.1742 134.387 27.3093 134.331 27.4541C134.274 27.5952 134.244 27.7457 134.243 27.8977V29.4794C134.243 29.5045 134.238 29.5294 134.228 29.5525C134.219 29.5756 134.204 29.5965 134.186 29.6137C134.168 29.632 134.148 29.6466 134.125 29.6565C134.101 29.6664 134.077 29.6714 134.051 29.6713ZM136.138 29.153C136.106 29.1094 136.089 29.0566 136.09 29.0027C136.091 28.9776 136.099 28.9534 136.114 28.9326C136.128 28.9118 136.147 28.8951 136.17 28.8842C136.186 28.8697 136.204 28.8588 136.225 28.8522C136.245 28.8456 136.267 28.8434 136.288 28.8458C136.336 28.8516 136.38 28.8743 136.413 28.9098C136.526 29.0577 136.669 29.1807 136.832 29.2713C137.012 29.3667 137.213 29.4141 137.417 29.4088C137.538 29.4086 137.658 29.388 137.772 29.3481C137.883 29.3115 137.983 29.2477 138.063 29.1625C138.142 29.0758 138.183 28.9622 138.179 28.8456C138.184 28.7279 138.143 28.6129 138.063 28.5256C137.98 28.4401 137.878 28.3745 137.766 28.3336C137.639 28.2853 137.51 28.2447 137.379 28.2122C137.234 28.1738 137.093 28.1301 136.957 28.0809C136.828 28.036 136.707 27.9736 136.595 27.8954C136.493 27.8232 136.407 27.7306 136.342 27.6235C136.275 27.5046 136.242 27.3695 136.246 27.2331C136.243 27.0635 136.295 26.8975 136.394 26.7595C136.496 26.6193 136.634 26.5089 136.794 26.4395C136.974 26.3603 137.169 26.321 137.366 26.3243C137.483 26.3255 137.599 26.3395 137.712 26.366C137.839 26.3951 137.962 26.4413 138.077 26.5035C138.199 26.5699 138.308 26.6589 138.397 26.7659C138.415 26.7827 138.429 26.803 138.439 26.8255C138.449 26.8481 138.454 26.8724 138.454 26.897C138.454 26.9222 138.448 26.947 138.437 26.9697C138.426 26.9923 138.41 27.0123 138.39 27.0281C138.356 27.0537 138.315 27.0672 138.272 27.0665C138.251 27.0669 138.229 27.0625 138.21 27.0536C138.191 27.0447 138.174 27.0317 138.16 27.0153C138.06 26.9016 137.935 26.8119 137.795 26.7529C137.651 26.6926 137.497 26.6621 137.341 26.6633C137.222 26.6625 137.104 26.6831 136.992 26.7242C136.888 26.7619 136.794 26.8247 136.72 26.9071C136.645 26.9962 136.606 27.1105 136.611 27.2271C136.615 27.3403 136.662 27.4479 136.742 27.5278C136.833 27.612 136.94 27.6772 137.056 27.7198C137.199 27.7753 137.346 27.8223 137.495 27.8606C137.628 27.8938 137.76 27.9344 137.888 27.9822C138.007 28.0252 138.119 28.0844 138.221 28.1581C138.317 28.2283 138.396 28.3191 138.452 28.4238C138.513 28.5487 138.543 28.6869 138.538 28.826C138.542 29.0012 138.487 29.1726 138.381 29.3124C138.272 29.4525 138.127 29.5608 137.962 29.626C137.777 29.7007 137.579 29.7379 137.379 29.7353C137.15 29.7355 136.922 29.6898 136.711 29.601C136.484 29.5031 136.287 29.3489 136.138 29.153Z" fill="#4D3D33"/>
</g>
</g>
</g>
<defs>
<clipPath id="clip0_416_6117">
<rect width="139" height="36.2179" fill="white"/>
</clipPath>
</defs>
</svg>
