<svg width="1023" height="175" viewBox="0 0 1023 175" fill="none" xmlns="http://www.w3.org/2000/svg">
<g id="Frame 4">
<rect id="Rectangle 3690" width="231.151" height="174.144" rx="3.12366" fill="#FFF4F2"/>
<rect id="Rectangle 3691" x="263.949" width="231.151" height="174.144" rx="3.12366" fill="#FFF4F2"/>
<rect id="Rectangle 3692" x="527.898" width="231.151" height="174.144" rx="3.12366" fill="#FFF4F2"/>
<rect id="Rectangle 3693" x="791.848" width="231.151" height="174.144" rx="3.12366" fill="#FFF4F2"/>
<g id="Group 73197">
<g id="Group 72649">
<g id="Group 72648">
<path id="Rectangle 3382" d="M89 50.5C89 43.03 95.03 37 102.5 37H129.5C136.97 37 143 43.03 143 50.5V77.5C143 84.97 136.97 91 129.5 91H102.5C95.03 91 89 84.97 89 77.5V50.5Z" fill="#0099B8"/>
</g>
</g>
</g>
<g id="noun_Approve_1966531">
<g id="Group 72681">
<path id="Path 14432" fill-rule="evenodd" clip-rule="evenodd" d="M132.468 56.7925L129.842 68.2943C129.208 70.8301 127.034 72.551 124.408 72.551H121.872L119.155 77.1698C118.521 78.2566 117.524 78.8 116.347 78.8C115.17 78.8 114.083 78.166 113.54 77.1698L110.823 72.551H108.196C105.66 72.551 103.396 70.8301 102.853 68.2943L100.136 56.7925C99.7736 55.1623 100.136 53.4416 101.223 52.0831C102.309 50.7246 103.849 50 105.57 50H127.125C128.845 50 130.385 50.7246 131.472 52.0831C132.558 53.4416 132.921 55.1623 132.468 56.7925ZM129.207 53.8944C128.755 53.1699 127.94 52.8075 127.125 52.8075H105.57C104.664 52.8075 103.939 53.1699 103.396 53.8944C102.943 54.5283 102.762 55.3434 102.943 56.1585L105.66 67.6604C105.932 68.9283 107.019 69.7434 108.287 69.7434H111.638C112.091 69.7434 112.634 70.0151 112.815 70.4679L115.985 75.7208C116.075 75.9019 116.257 75.9924 116.347 75.9924C116.438 75.9924 116.619 75.9925 116.709 75.7208L119.97 70.4679C120.151 70.1056 120.604 69.834 121.147 69.834H124.498C125.766 69.834 126.853 68.9283 127.125 67.6604L129.842 56.1585C129.932 55.3434 129.841 54.5283 129.207 53.8944Z" fill="white"/>
<path id="Path 14433" d="M120.514 57.0643L114.99 62.5888L112.273 59.8718C111.639 59.3284 110.824 59.3284 110.28 59.8718C109.646 60.4152 109.646 61.3208 110.28 61.8642L113.993 65.5774C114.265 65.8491 114.627 66.0302 114.99 66.0302C115.352 66.0302 115.684 65.8793 115.986 65.5774L122.507 59.0567C123.05 58.5133 123.05 57.6077 122.507 57.0643C121.963 56.5209 121.058 56.5209 120.514 57.0643Z" fill="white"/>
</g>
</g>
<g id="Group 73217">
<g id="Group 72649_2">
<g id="Group 72648_2">
<path id="Rectangle 3382_2" d="M353 50.5C353 43.03 359.03 37 366.5 37H393.5C400.97 37 407 43.03 407 50.5V77.5C407 84.97 400.97 91 393.5 91H366.5C359.03 91 353 84.97 353 77.5V50.5Z" fill="#FFA58B"/>
</g>
</g>
</g>
<g id="Group 73216">
<g id="Group 72647">
<g id="Icon feather-scissors">
<path id="Path 14434" d="M376.474 54.7369C376.474 57.3684 374.368 59.4737 371.737 59.4737C369.105 59.4737 367 57.3684 367 54.7369C367 52.1053 369.105 50 371.737 50C374.368 50 376.474 52.1053 376.474 54.7369Z" stroke="white" stroke-width="2.63158" stroke-linecap="round"/>
<path id="Path 14435" d="M376.474 72.6314C376.474 75.263 374.368 77.3682 371.737 77.3682C369.105 77.3682 367 75.263 367 72.6314C367 69.9998 369.105 67.8945 371.737 67.8945C374.368 67.8945 376.474 69.9998 376.474 72.6314Z" stroke="white" stroke-width="2.63158" stroke-linecap="round"/>
<path id="Path 14436" d="M392.999 51.5791L374.262 70.316" stroke="white" stroke-width="2.63158" stroke-linecap="round"/>
<path id="Path 14437" d="M384.262 67.0525L392.999 75.7894" stroke="#BA2B0C" stroke-width="2.63158" stroke-linecap="round"/>
<path id="Path 14438" d="M374.789 57.6841L380.894 63.7893" stroke="white" stroke-width="2.63158" stroke-linecap="round"/>
</g>
</g>
</g>
<g id="Group 73199">
<g id="Group 72649_3">
<g id="Group 72648_3">
<path id="Rectangle 3382_3" d="M617 50.5C617 43.03 623.03 37 630.5 37H657.5C664.97 37 671 43.03 671 50.5V77.5C671 84.97 664.97 91 657.5 91H630.5C623.03 91 617 84.97 617 77.5V50.5Z" fill="#637EC9"/>
</g>
</g>
</g>
<g id="Group 73217_2">
<g id="Group 72647_2">
<g id="noun_secure paper_717892">
<g id="Group 72682">
<path id="Path 14439" fill-rule="evenodd" clip-rule="evenodd" d="M632 51H650.2C650.8 51 651.2 51.5 651.2 52.1V60.3C651.2 60.9 650.8 61.3 650.2 61.3C649.6 61.3 649.2 60.9 649.2 60.3V53.1H633V74H641.8C642.4 74 642.8 74.5 642.8 75.1C642.8 75.6 642.4 76.1 641.8 76.1H632C631.4 76.1 631 75.6 631 75.1V52.1C631 51.5 631.4 51.1 631.9 51C631.9 51 631.933 51 632 51ZM635 56.8H647.2C647.7 56.8 648.2 57.2 648.2 57.8C648.2 58.4 647.7 58.8 647.2 58.8H635C634.5 58.8 634 58.4 634 57.9C633.9 57.3 634.4 56.8 634.9 56.8C634.967 56.8 635 56.8 635 56.8ZM635 62.5H644.2C644.7 62.5 645.2 63 645.2 63.6C645.2 64.1 644.7 64.6 644.2 64.6H635C634.5 64.6 634 64.2 634 63.6C633.9 63 634.4 62.6 634.9 62.5C634.967 62.5 635 62.5 635 62.5ZM635 68.3H644.2C644.7 68.3 645.2 68.7 645.2 69.3C645.2 69.9 644.7 70.3 644.2 70.3H635C634.5 70.4 634 69.9 634 69.4C633.9 68.8 634.4 68.3 634.9 68.3C634.967 68.3 635 68.3 635 68.3Z" fill="white"/>
<g id="noun_secure paper_717892_2">
<g id="Group 72682_2">
<path id="Path 14439_2" fill-rule="evenodd" clip-rule="evenodd" d="M649.8 64H653.3C653.8 64 654.2 64.2 654.4 64.6L654.9 65.3H656.4C656.7 65.3 657.1 65.5 657.3 65.7C657.6 66 657.7 66.4 657.7 66.8L656.8 73.7C656.733 73.9666 656.633 74.2 656.5 74.4C656.5 74.4 655.9 75.2 655.1 76C654.2 76.9 653.2 77.9 651.6 77.9C650 77.9 649 76.9 648.1 76C647.2 75.2 646.6 74.4 646.6 74.4C646.467 74.2 646.4 73.9666 646.4 73.7L645.5 66.8C645.5 66.4 645.6 66 645.8 65.7C646.1 65.5 646.4 65.3 646.8 65.3H648.3L648.8 64.6C649 64.2 649.3 64 649.7 64C649.767 64 649.8 64 649.8 64ZM650.1 67.3C649.8 67.7 649.4 67.9 649 67.9H648.3L648.9 73C649 73.2 649.3 73.6 649.9 74.2C650.6 74.8 651.6 75.3 651.6 75.3C651.6 75.3 652.6 74.8 653.2 74.2C653.8 73.6 654.1 73.2 654.3 73L654.9 67.9H654.2C653.8 67.9 653.3 67.7 653.1 67.3L652.6 66.6H650.5L650.1 67.3Z" fill="#BA2B0C"/>
</g>
</g>
</g>
</g>
</g>
</g>
<g id="Group 73200">
<g id="Group 72649_4">
<g id="Group 72648_4">
<path id="Rectangle 3382_4" d="M881 50.5C881 43.03 887.03 37 894.5 37H921.5C928.97 37 935 43.03 935 50.5V77.5C935 84.97 928.97 91 921.5 91H894.5C887.03 91 881 84.97 881 77.5V50.5Z" fill="#002538"/>
</g>
</g>
</g>
<g id="Group 71922">
<g id="Group 72647_3">
<g id="noun_calender_3648187">
<g id="Group 72683">
<path id="Path 14440" d="M910.102 64.3L907.202 67.1999L905.902 65.9C905.502 65.5 904.902 65.5 904.402 65.9C904.002 66.3 904.002 67 904.402 67.4L906.502 69.4C906.702 69.6 906.935 69.6999 907.202 69.6999C907.535 69.6999 907.802 69.6 908.002 69.4L911.602 65.8C912.002 65.4 912.002 64.7 911.602 64.3C911.102 63.9 910.502 63.9 910.102 64.3Z" fill="#BA2B0C"/>
<path id="Path 14441" fill-rule="evenodd" clip-rule="evenodd" d="M922 59.3V69.9C922 73.2 919.4 75.8 916.1 75.8H899.9C896.6 75.8 894 73.2 894 69.9V59.3C894 56 896.6 53.4 899.9 53.4H901.7V53C901.7 52.5 902.2 52 902.7 52C903.3 52 903.8 52.5 903.8 53V53.4H912.2V53C912.2 52.5 912.7 52 913.3 52C913.9 52 914.3 52.5 914.3 53V53.4H916.1C919.3 53.4 922 56 922 59.3ZM896.1 58.9H919.8C919.6 57 918 55.5 916.1 55.5H914.3V56C914.3 56.6 913.8 57.1 913.2 57.1C912.7 57.1 912.2 56.6 912.2 56V55.5H903.8V56C903.8 56.6 903.3 57.1 902.7 57.1C902.1 57.1 901.7 56.6 901.7 56V55.5H899.9C898 55.5 896.3 57 896.1 58.9ZM919.9 69.9V61H896.1V69.9C896.1 72 897.8 73.7 899.9 73.7H916.1C918.2 73.7 919.9 72 919.9 69.9Z" fill="white"/>
</g>
</g>
</g>
</g>
<path id="USFDA Approved Procedures" d="M52.5865 117.888V110.432H54.1545V117.792C54.1545 118.72 54.3998 119.435 54.8905 119.936C55.3918 120.427 56.1012 120.672 57.0185 120.672C57.9252 120.672 58.6238 120.421 59.1145 119.92C59.6052 119.419 59.8505 118.709 59.8505 117.792V110.432H61.4345V117.888C61.4345 118.773 61.2532 119.536 60.8905 120.176C60.5385 120.816 60.0318 121.312 59.3705 121.664C58.7092 122.016 57.9252 122.192 57.0185 122.192C56.1118 122.192 55.3225 122.021 54.6505 121.68C53.9892 121.328 53.4772 120.832 53.1145 120.192C52.7625 119.541 52.5865 118.773 52.5865 117.888ZM63.6895 113.552C63.6895 112.891 63.8548 112.309 64.1855 111.808C64.5162 111.307 64.9802 110.917 65.5775 110.64C66.1855 110.363 66.8842 110.224 67.6735 110.224C68.4095 110.224 69.0495 110.357 69.5935 110.624C70.1482 110.88 70.5802 111.248 70.8895 111.728C71.2095 112.208 71.3908 112.784 71.4335 113.456H69.8495C69.8068 112.88 69.5935 112.432 69.2095 112.112C68.8255 111.792 68.3082 111.632 67.6575 111.632C66.9322 111.632 66.3508 111.803 65.9135 112.144C65.4762 112.475 65.2575 112.928 65.2575 113.504C65.2575 113.973 65.3908 114.352 65.6575 114.64C65.9242 114.917 66.3295 115.12 66.8735 115.248L68.7775 115.696C69.7268 115.909 70.4362 116.277 70.9055 116.8C71.3855 117.312 71.6255 117.973 71.6255 118.784C71.6255 119.477 71.4548 120.08 71.1135 120.592C70.7828 121.104 70.3082 121.499 69.6895 121.776C69.0815 122.053 68.3668 122.192 67.5455 122.192C66.7668 122.192 66.0788 122.064 65.4815 121.808C64.8948 121.541 64.4308 121.168 64.0895 120.688C63.7588 120.197 63.5722 119.627 63.5295 118.976H65.1295C65.1402 119.531 65.3642 119.973 65.8015 120.304C66.2388 120.624 66.8202 120.784 67.5455 120.784C68.3135 120.784 68.9215 120.613 69.3695 120.272C69.8282 119.931 70.0575 119.477 70.0575 118.912C70.0575 118.453 69.9295 118.08 69.6735 117.792C69.4175 117.504 69.0122 117.296 68.4575 117.168L66.5535 116.736C65.6148 116.523 64.9002 116.149 64.4095 115.616C63.9295 115.072 63.6895 114.384 63.6895 113.552ZM75.4839 110.432V122H73.9159V110.432H75.4839ZM80.8919 111.872H74.0279V110.432H80.8919V111.872ZM80.0279 117.088H73.9959V115.664H80.0279V117.088ZM86.9349 122H83.1109V110.432H86.8709C88.0229 110.432 89.0309 110.677 89.8949 111.168C90.7695 111.648 91.4469 112.325 91.9269 113.2C92.4175 114.064 92.6629 115.072 92.6629 116.224C92.6629 117.365 92.4229 118.373 91.9429 119.248C91.4629 120.112 90.7909 120.789 89.9269 121.28C89.0735 121.76 88.0762 122 86.9349 122ZM84.6789 111.168V121.28L83.9429 120.544H86.8229C87.6869 120.544 88.4282 120.368 89.0469 120.016C89.6762 119.664 90.1615 119.168 90.5029 118.528C90.8549 117.877 91.0309 117.109 91.0309 116.224C91.0309 115.328 90.8549 114.555 90.5029 113.904C90.1615 113.253 89.6709 112.752 89.0309 112.4C88.4015 112.048 87.6442 111.872 86.7589 111.872H83.9429L84.6789 111.168ZM94.9578 122H93.3258L97.5498 110.432H99.2938L103.534 122H101.886L100.846 119.12H95.9818L94.9578 122ZM98.2218 112.928L96.4618 117.76H100.382L98.6058 112.928C98.5738 112.811 98.5364 112.693 98.4938 112.576C98.4511 112.448 98.4244 112.341 98.4138 112.256C98.3924 112.341 98.3658 112.448 98.3338 112.576C98.3018 112.693 98.2644 112.811 98.2218 112.928ZM110.567 122H108.935L113.159 110.432H114.903L119.143 122H117.495L116.455 119.12H111.591L110.567 122ZM113.831 112.928L112.071 117.76H115.991L114.215 112.928C114.183 112.811 114.145 112.693 114.103 112.576C114.06 112.448 114.033 112.341 114.023 112.256C114.001 112.341 113.975 112.448 113.943 112.576C113.911 112.693 113.873 112.811 113.831 112.928ZM120.744 125.504V114.176H122.104L122.216 115.584C122.472 115.04 122.851 114.635 123.352 114.368C123.864 114.091 124.43 113.952 125.048 113.952C125.795 113.952 126.44 114.128 126.984 114.48C127.528 114.821 127.944 115.301 128.232 115.92C128.531 116.528 128.68 117.232 128.68 118.032C128.68 118.832 128.536 119.547 128.248 120.176C127.971 120.805 127.56 121.301 127.016 121.664C126.483 122.027 125.827 122.208 125.048 122.208C124.419 122.208 123.859 122.08 123.368 121.824C122.878 121.568 122.504 121.2 122.248 120.72V125.504H120.744ZM122.264 118.096C122.264 118.619 122.36 119.093 122.552 119.52C122.755 119.936 123.038 120.261 123.4 120.496C123.774 120.731 124.216 120.848 124.728 120.848C125.24 120.848 125.678 120.731 126.04 120.496C126.403 120.251 126.68 119.92 126.872 119.504C127.075 119.088 127.176 118.619 127.176 118.096C127.176 117.552 127.075 117.072 126.872 116.656C126.68 116.24 126.403 115.915 126.04 115.68C125.678 115.445 125.24 115.328 124.728 115.328C124.216 115.328 123.774 115.445 123.4 115.68C123.038 115.915 122.755 116.24 122.552 116.656C122.36 117.072 122.264 117.552 122.264 118.096ZM130.658 125.504V114.176H132.018L132.13 115.584C132.386 115.04 132.765 114.635 133.266 114.368C133.778 114.091 134.343 113.952 134.962 113.952C135.709 113.952 136.354 114.128 136.898 114.48C137.442 114.821 137.858 115.301 138.146 115.92C138.445 116.528 138.594 117.232 138.594 118.032C138.594 118.832 138.45 119.547 138.162 120.176C137.885 120.805 137.474 121.301 136.93 121.664C136.397 122.027 135.741 122.208 134.962 122.208C134.333 122.208 133.773 122.08 133.282 121.824C132.791 121.568 132.418 121.2 132.162 120.72V125.504H130.658ZM132.178 118.096C132.178 118.619 132.274 119.093 132.466 119.52C132.669 119.936 132.951 120.261 133.314 120.496C133.687 120.731 134.13 120.848 134.642 120.848C135.154 120.848 135.591 120.731 135.954 120.496C136.317 120.251 136.594 119.92 136.786 119.504C136.989 119.088 137.09 118.619 137.09 118.096C137.09 117.552 136.989 117.072 136.786 116.656C136.594 116.24 136.317 115.915 135.954 115.68C135.591 115.445 135.154 115.328 134.642 115.328C134.13 115.328 133.687 115.445 133.314 115.68C132.951 115.915 132.669 116.24 132.466 116.656C132.274 117.072 132.178 117.552 132.178 118.096ZM145.052 114.112V115.488H144.38C143.665 115.488 143.1 115.696 142.684 116.112C142.278 116.517 142.076 117.099 142.076 117.856V122H140.572V114.192H141.98L142.108 115.76H141.964C142.07 115.248 142.326 114.832 142.732 114.512C143.137 114.181 143.644 114.016 144.252 114.016C144.39 114.016 144.518 114.027 144.636 114.048C144.764 114.059 144.902 114.08 145.052 114.112ZM145.989 118.08C145.989 117.28 146.165 116.571 146.517 115.952C146.869 115.333 147.349 114.848 147.957 114.496C148.576 114.144 149.28 113.968 150.069 113.968C150.858 113.968 151.557 114.144 152.165 114.496C152.773 114.848 153.253 115.333 153.605 115.952C153.957 116.571 154.133 117.28 154.133 118.08C154.133 118.88 153.957 119.589 153.605 120.208C153.253 120.827 152.773 121.312 152.165 121.664C151.557 122.016 150.858 122.192 150.069 122.192C149.28 122.192 148.576 122.016 147.957 121.664C147.349 121.312 146.869 120.827 146.517 120.208C146.165 119.589 145.989 118.88 145.989 118.08ZM147.509 118.08C147.509 118.624 147.616 119.104 147.829 119.52C148.053 119.936 148.357 120.261 148.741 120.496C149.125 120.731 149.568 120.848 150.069 120.848C150.57 120.848 151.013 120.731 151.397 120.496C151.781 120.261 152.08 119.936 152.293 119.52C152.517 119.104 152.629 118.624 152.629 118.08C152.629 117.525 152.517 117.045 152.293 116.64C152.08 116.224 151.781 115.899 151.397 115.664C151.013 115.429 150.57 115.312 150.069 115.312C149.568 115.312 149.125 115.429 148.741 115.664C148.357 115.899 148.053 116.224 147.829 116.64C147.616 117.045 147.509 117.525 147.509 118.08ZM157.951 122L154.799 114.176H156.399L158.111 118.544C158.249 118.907 158.372 119.253 158.479 119.584C158.585 119.904 158.671 120.181 158.735 120.416C158.809 120.149 158.9 119.856 159.007 119.536C159.124 119.216 159.252 118.885 159.391 118.544L161.135 114.176H162.703L159.439 122H157.951ZM167.236 122.192C166.479 122.192 165.807 122.021 165.22 121.68C164.633 121.328 164.175 120.848 163.844 120.24C163.513 119.621 163.348 118.907 163.348 118.096C163.348 117.275 163.508 116.555 163.828 115.936C164.159 115.317 164.607 114.832 165.172 114.48C165.748 114.128 166.415 113.952 167.172 113.952C167.919 113.952 168.564 114.112 169.108 114.432C169.663 114.752 170.089 115.2 170.388 115.776C170.697 116.352 170.852 117.029 170.852 117.808V118.368L164.148 118.384L164.18 117.376H169.348C169.348 116.725 169.151 116.203 168.756 115.808C168.361 115.413 167.833 115.216 167.172 115.216C166.671 115.216 166.239 115.328 165.876 115.552C165.524 115.765 165.252 116.085 165.06 116.512C164.879 116.928 164.788 117.429 164.788 118.016C164.788 118.955 165.001 119.68 165.428 120.192C165.855 120.693 166.468 120.944 167.268 120.944C167.855 120.944 168.335 120.827 168.708 120.592C169.081 120.357 169.332 120.016 169.46 119.568H170.868C170.676 120.4 170.265 121.045 169.636 121.504C169.007 121.963 168.207 122.192 167.236 122.192ZM175.988 122.192C175.23 122.192 174.58 122.021 174.036 121.68C173.492 121.328 173.07 120.843 172.772 120.224C172.484 119.605 172.34 118.901 172.34 118.112C172.34 117.312 172.489 116.603 172.788 115.984C173.086 115.355 173.513 114.859 174.068 114.496C174.622 114.133 175.284 113.952 176.052 113.952C176.66 113.952 177.198 114.08 177.668 114.336C178.148 114.581 178.521 114.949 178.788 115.44V110.224H180.276V122H178.932L178.804 120.576C178.548 121.099 178.169 121.499 177.668 121.776C177.177 122.053 176.617 122.192 175.988 122.192ZM176.292 120.832C176.804 120.832 177.241 120.715 177.604 120.48C177.977 120.245 178.265 119.92 178.468 119.504C178.67 119.088 178.772 118.608 178.772 118.064C178.772 117.52 178.67 117.045 178.468 116.64C178.265 116.224 177.977 115.899 177.604 115.664C177.241 115.429 176.804 115.312 176.292 115.312C175.78 115.312 175.342 115.435 174.98 115.68C174.617 115.915 174.34 116.24 174.148 116.656C173.956 117.061 173.86 117.531 173.86 118.064C173.86 118.608 173.956 119.088 174.148 119.504C174.34 119.92 174.617 120.245 174.98 120.48C175.342 120.715 175.78 120.832 176.292 120.832ZM76.847 132.432V144H75.279V132.432H76.847ZM79.775 139.872H76.495V138.464H79.439C80.2177 138.464 80.815 138.256 81.231 137.84C81.647 137.413 81.855 136.843 81.855 136.128C81.855 135.403 81.647 134.843 81.231 134.448C80.815 134.043 80.239 133.84 79.503 133.84H76.143V132.432H79.775C80.5323 132.432 81.1883 132.587 81.743 132.896C82.2977 133.205 82.7297 133.637 83.039 134.192C83.3483 134.747 83.503 135.397 83.503 136.144C83.503 136.859 83.3483 137.499 83.039 138.064C82.7297 138.629 82.2977 139.072 81.743 139.392C81.1883 139.712 80.5323 139.872 79.775 139.872ZM89.823 136.112V137.488H89.151C88.4363 137.488 87.871 137.696 87.455 138.112C87.0497 138.517 86.847 139.099 86.847 139.856V144H85.343V136.192H86.751L86.879 137.76H86.735C86.8417 137.248 87.0977 136.832 87.503 136.512C87.9083 136.181 88.415 136.016 89.023 136.016C89.1617 136.016 89.2897 136.027 89.407 136.048C89.535 136.059 89.6737 136.08 89.823 136.112ZM90.7604 140.08C90.7604 139.28 90.9364 138.571 91.2884 137.952C91.6404 137.333 92.1204 136.848 92.7284 136.496C93.347 136.144 94.051 135.968 94.8404 135.968C95.6297 135.968 96.3284 136.144 96.9364 136.496C97.5444 136.848 98.0244 137.333 98.3764 137.952C98.7284 138.571 98.9044 139.28 98.9044 140.08C98.9044 140.88 98.7284 141.589 98.3764 142.208C98.0244 142.827 97.5444 143.312 96.9364 143.664C96.3284 144.016 95.6297 144.192 94.8404 144.192C94.051 144.192 93.347 144.016 92.7284 143.664C92.1204 143.312 91.6404 142.827 91.2884 142.208C90.9364 141.589 90.7604 140.88 90.7604 140.08ZM92.2804 140.08C92.2804 140.624 92.387 141.104 92.6004 141.52C92.8244 141.936 93.1284 142.261 93.5124 142.496C93.8964 142.731 94.339 142.848 94.8404 142.848C95.3417 142.848 95.7844 142.731 96.1684 142.496C96.5524 142.261 96.851 141.936 97.0644 141.52C97.2884 141.104 97.4004 140.624 97.4004 140.08C97.4004 139.525 97.2884 139.045 97.0644 138.64C96.851 138.224 96.5524 137.899 96.1684 137.664C95.7844 137.429 95.3417 137.312 94.8404 137.312C94.339 137.312 93.8964 137.429 93.5124 137.664C93.1284 137.899 92.8244 138.224 92.6004 138.64C92.387 139.045 92.2804 139.525 92.2804 140.08ZM100.377 140.096C100.377 139.275 100.537 138.555 100.857 137.936C101.188 137.317 101.641 136.832 102.217 136.48C102.793 136.128 103.46 135.952 104.217 135.952C105.199 135.952 106.015 136.213 106.665 136.736C107.316 137.259 107.705 137.952 107.833 138.816H106.329C106.201 138.315 105.951 137.936 105.577 137.68C105.204 137.424 104.767 137.296 104.265 137.296C103.796 137.296 103.38 137.413 103.017 137.648C102.655 137.872 102.372 138.192 102.169 138.608C101.967 139.024 101.865 139.515 101.865 140.08C101.865 140.645 101.961 141.136 102.153 141.552C102.345 141.957 102.617 142.277 102.969 142.512C103.321 142.736 103.732 142.848 104.201 142.848C104.735 142.848 105.193 142.715 105.577 142.448C105.961 142.181 106.217 141.819 106.345 141.36H107.849C107.753 141.925 107.535 142.421 107.193 142.848C106.863 143.264 106.436 143.595 105.913 143.84C105.401 144.075 104.831 144.192 104.201 144.192C103.433 144.192 102.761 144.021 102.185 143.68C101.62 143.339 101.177 142.864 100.857 142.256C100.537 141.637 100.377 140.917 100.377 140.096ZM113.132 144.192C112.375 144.192 111.703 144.021 111.116 143.68C110.529 143.328 110.071 142.848 109.74 142.24C109.409 141.621 109.244 140.907 109.244 140.096C109.244 139.275 109.404 138.555 109.724 137.936C110.055 137.317 110.503 136.832 111.068 136.48C111.644 136.128 112.311 135.952 113.068 135.952C113.815 135.952 114.46 136.112 115.004 136.432C115.559 136.752 115.985 137.2 116.284 137.776C116.593 138.352 116.748 139.029 116.748 139.808V140.368L110.044 140.384L110.076 139.376H115.244C115.244 138.725 115.047 138.203 114.652 137.808C114.257 137.413 113.729 137.216 113.068 137.216C112.567 137.216 112.135 137.328 111.772 137.552C111.42 137.765 111.148 138.085 110.956 138.512C110.775 138.928 110.684 139.429 110.684 140.016C110.684 140.955 110.897 141.68 111.324 142.192C111.751 142.693 112.364 142.944 113.164 142.944C113.751 142.944 114.231 142.827 114.604 142.592C114.977 142.357 115.228 142.016 115.356 141.568H116.764C116.572 142.4 116.161 143.045 115.532 143.504C114.903 143.963 114.103 144.192 113.132 144.192ZM121.884 144.192C121.127 144.192 120.476 144.021 119.932 143.68C119.388 143.328 118.967 142.843 118.668 142.224C118.38 141.605 118.236 140.901 118.236 140.112C118.236 139.312 118.385 138.603 118.684 137.984C118.983 137.355 119.409 136.859 119.964 136.496C120.519 136.133 121.18 135.952 121.948 135.952C122.556 135.952 123.095 136.08 123.564 136.336C124.044 136.581 124.417 136.949 124.684 137.44V132.224H126.172V144H124.828L124.7 142.576C124.444 143.099 124.065 143.499 123.564 143.776C123.073 144.053 122.513 144.192 121.884 144.192ZM122.188 142.832C122.7 142.832 123.137 142.715 123.5 142.48C123.873 142.245 124.161 141.92 124.364 141.504C124.567 141.088 124.668 140.608 124.668 140.064C124.668 139.52 124.567 139.045 124.364 138.64C124.161 138.224 123.873 137.899 123.5 137.664C123.137 137.429 122.7 137.312 122.188 137.312C121.676 137.312 121.239 137.435 120.876 137.68C120.513 137.915 120.236 138.24 120.044 138.656C119.852 139.061 119.756 139.531 119.756 140.064C119.756 140.608 119.852 141.088 120.044 141.504C120.236 141.92 120.513 142.245 120.876 142.48C121.239 142.715 121.676 142.832 122.188 142.832ZM134.07 136.176H135.558V144H134.214L134.054 142.816C133.83 143.221 133.478 143.552 132.998 143.808C132.518 144.064 131.99 144.192 131.414 144.192C130.507 144.192 129.803 143.909 129.302 143.344C128.811 142.768 128.566 142 128.566 141.04V136.176H130.07V140.544C130.07 141.376 130.235 141.973 130.566 142.336C130.907 142.688 131.366 142.864 131.942 142.864C132.635 142.864 133.163 142.651 133.526 142.224C133.888 141.787 134.07 141.147 134.07 140.304V136.176ZM142.54 136.112V137.488H141.868C141.153 137.488 140.588 137.696 140.172 138.112C139.767 138.517 139.564 139.099 139.564 139.856V144H138.06V136.192H139.468L139.596 137.76H139.452C139.559 137.248 139.815 136.832 140.22 136.512C140.625 136.181 141.132 136.016 141.74 136.016C141.879 136.016 142.007 136.027 142.124 136.048C142.252 136.059 142.391 136.08 142.54 136.112ZM147.365 144.192C146.608 144.192 145.936 144.021 145.349 143.68C144.763 143.328 144.304 142.848 143.973 142.24C143.643 141.621 143.477 140.907 143.477 140.096C143.477 139.275 143.637 138.555 143.957 137.936C144.288 137.317 144.736 136.832 145.301 136.48C145.877 136.128 146.544 135.952 147.301 135.952C148.048 135.952 148.693 136.112 149.237 136.432C149.792 136.752 150.219 137.2 150.517 137.776C150.827 138.352 150.981 139.029 150.981 139.808V140.368L144.277 140.384L144.309 139.376H149.477C149.477 138.725 149.28 138.203 148.885 137.808C148.491 137.413 147.963 137.216 147.301 137.216C146.8 137.216 146.368 137.328 146.005 137.552C145.653 137.765 145.381 138.085 145.189 138.512C145.008 138.928 144.917 139.429 144.917 140.016C144.917 140.955 145.131 141.68 145.557 142.192C145.984 142.693 146.597 142.944 147.397 142.944C147.984 142.944 148.464 142.827 148.837 142.592C149.211 142.357 149.461 142.016 149.589 141.568H150.997C150.805 142.4 150.395 143.045 149.765 143.504C149.136 143.963 148.336 144.192 147.365 144.192ZM152.341 141.728H153.781C153.781 142.123 153.925 142.437 154.213 142.672C154.501 142.896 154.89 143.008 155.381 143.008C155.914 143.008 156.325 142.907 156.613 142.704C156.901 142.491 157.045 142.208 157.045 141.856C157.045 141.6 156.965 141.387 156.805 141.216C156.656 141.045 156.378 140.907 155.973 140.8L154.597 140.48C153.904 140.309 153.386 140.048 153.045 139.696C152.714 139.344 152.549 138.88 152.549 138.304C152.549 137.824 152.672 137.408 152.917 137.056C153.173 136.704 153.52 136.432 153.957 136.24C154.405 136.048 154.917 135.952 155.493 135.952C156.069 135.952 156.565 136.053 156.981 136.256C157.408 136.459 157.738 136.741 157.973 137.104C158.218 137.467 158.346 137.899 158.357 138.4H156.917C156.906 137.995 156.773 137.68 156.517 137.456C156.261 137.232 155.904 137.12 155.445 137.12C154.976 137.12 154.613 137.221 154.357 137.424C154.101 137.627 153.973 137.904 153.973 138.256C153.973 138.779 154.357 139.136 155.125 139.328L156.501 139.664C157.162 139.813 157.658 140.059 157.989 140.4C158.32 140.731 158.485 141.184 158.485 141.76C158.485 142.251 158.352 142.683 158.085 143.056C157.818 143.419 157.45 143.701 156.981 143.904C156.522 144.096 155.978 144.192 155.349 144.192C154.432 144.192 153.701 143.968 153.157 143.52C152.613 143.072 152.341 142.475 152.341 141.728Z" fill="#828282"/>
<path id="No Cuts, No Wounds, Painless" d="M297.708 122H296.14V110.432H297.708L304.06 120.032H303.628V110.432H305.196V122H303.628L297.276 112.4H297.708V122ZM307.442 118.08C307.442 117.28 307.618 116.571 307.97 115.952C308.322 115.333 308.802 114.848 309.41 114.496C310.029 114.144 310.733 113.968 311.522 113.968C312.311 113.968 313.01 114.144 313.618 114.496C314.226 114.848 314.706 115.333 315.058 115.952C315.41 116.571 315.586 117.28 315.586 118.08C315.586 118.88 315.41 119.589 315.058 120.208C314.706 120.827 314.226 121.312 313.618 121.664C313.01 122.016 312.311 122.192 311.522 122.192C310.733 122.192 310.029 122.016 309.41 121.664C308.802 121.312 308.322 120.827 307.97 120.208C307.618 119.589 307.442 118.88 307.442 118.08ZM308.962 118.08C308.962 118.624 309.069 119.104 309.282 119.52C309.506 119.936 309.81 120.261 310.194 120.496C310.578 120.731 311.021 120.848 311.522 120.848C312.023 120.848 312.466 120.731 312.85 120.496C313.234 120.261 313.533 119.936 313.746 119.52C313.97 119.104 314.082 118.624 314.082 118.08C314.082 117.525 313.97 117.045 313.746 116.64C313.533 116.224 313.234 115.899 312.85 115.664C312.466 115.429 312.023 115.312 311.522 115.312C311.021 115.312 310.578 115.429 310.194 115.664C309.81 115.899 309.506 116.224 309.282 116.64C309.069 117.045 308.962 117.525 308.962 118.08ZM327.322 122.176C326.223 122.176 325.263 121.931 324.442 121.44C323.62 120.939 322.98 120.245 322.522 119.36C322.063 118.464 321.834 117.419 321.834 116.224C321.834 115.029 322.068 113.984 322.538 113.088C323.007 112.192 323.658 111.493 324.49 110.992C325.332 110.491 326.303 110.24 327.402 110.24C328.276 110.24 329.066 110.405 329.77 110.736C330.474 111.056 331.06 111.509 331.53 112.096C331.999 112.683 332.303 113.371 332.442 114.16H330.762C330.548 113.403 330.138 112.811 329.53 112.384C328.922 111.957 328.196 111.744 327.354 111.744C326.575 111.744 325.892 111.931 325.306 112.304C324.73 112.667 324.282 113.184 323.962 113.856C323.642 114.517 323.482 115.301 323.482 116.208C323.482 117.104 323.642 117.888 323.962 118.56C324.282 119.232 324.735 119.755 325.322 120.128C325.908 120.491 326.586 120.672 327.354 120.672C328.207 120.672 328.943 120.464 329.562 120.048C330.191 119.621 330.612 119.051 330.826 118.336H332.49C332.33 119.104 332.004 119.776 331.514 120.352C331.034 120.928 330.431 121.376 329.706 121.696C328.991 122.016 328.196 122.176 327.322 122.176ZM339.884 114.176H341.372V122H340.028L339.868 120.816C339.644 121.221 339.292 121.552 338.812 121.808C338.332 122.064 337.804 122.192 337.228 122.192C336.322 122.192 335.618 121.909 335.116 121.344C334.626 120.768 334.38 120 334.38 119.04V114.176H335.884V118.544C335.884 119.376 336.05 119.973 336.38 120.336C336.722 120.688 337.18 120.864 337.756 120.864C338.45 120.864 338.978 120.651 339.34 120.224C339.703 119.787 339.884 119.147 339.884 118.304V114.176ZM343.043 114.176H347.619V115.44H343.043V114.176ZM346.083 122H344.579V111.728H346.083V122ZM348.648 119.728H350.088C350.088 120.123 350.232 120.437 350.52 120.672C350.808 120.896 351.198 121.008 351.688 121.008C352.222 121.008 352.632 120.907 352.92 120.704C353.208 120.491 353.352 120.208 353.352 119.856C353.352 119.6 353.272 119.387 353.112 119.216C352.963 119.045 352.686 118.907 352.28 118.8L350.904 118.48C350.211 118.309 349.694 118.048 349.352 117.696C349.022 117.344 348.856 116.88 348.856 116.304C348.856 115.824 348.979 115.408 349.224 115.056C349.48 114.704 349.827 114.432 350.264 114.24C350.712 114.048 351.224 113.952 351.8 113.952C352.376 113.952 352.872 114.053 353.288 114.256C353.715 114.459 354.046 114.741 354.28 115.104C354.526 115.467 354.654 115.899 354.664 116.4H353.224C353.214 115.995 353.08 115.68 352.824 115.456C352.568 115.232 352.211 115.12 351.752 115.12C351.283 115.12 350.92 115.221 350.664 115.424C350.408 115.627 350.28 115.904 350.28 116.256C350.28 116.779 350.664 117.136 351.432 117.328L352.808 117.664C353.47 117.813 353.966 118.059 354.296 118.4C354.627 118.731 354.792 119.184 354.792 119.76C354.792 120.251 354.659 120.683 354.392 121.056C354.126 121.419 353.758 121.701 353.288 121.904C352.83 122.096 352.286 122.192 351.656 122.192C350.739 122.192 350.008 121.968 349.464 121.52C348.92 121.072 348.648 120.475 348.648 119.728ZM358.062 121.856L358.19 121.824C358.126 121.888 358.046 121.936 357.95 121.968C357.865 122 357.758 122.016 357.63 122.016C357.374 122.016 357.145 121.931 356.942 121.76C356.75 121.579 356.654 121.339 356.654 121.04C356.654 120.72 356.75 120.459 356.942 120.256C357.145 120.043 357.406 119.936 357.726 119.936C358.068 119.936 358.356 120.064 358.59 120.32C358.825 120.576 358.942 120.928 358.942 121.376C358.942 121.76 358.852 122.112 358.67 122.432C358.5 122.763 358.265 123.029 357.966 123.232C357.668 123.445 357.326 123.579 356.942 123.632V122.96C357.262 122.896 357.529 122.763 357.742 122.56C357.956 122.368 358.062 122.133 358.062 121.856ZM367.947 122H366.379V110.432H367.947L374.299 120.032H373.867V110.432H375.435V122H373.867L367.515 112.4H367.947V122ZM377.681 118.08C377.681 117.28 377.857 116.571 378.209 115.952C378.561 115.333 379.041 114.848 379.649 114.496C380.268 114.144 380.972 113.968 381.761 113.968C382.551 113.968 383.249 114.144 383.857 114.496C384.465 114.848 384.945 115.333 385.297 115.952C385.649 116.571 385.825 117.28 385.825 118.08C385.825 118.88 385.649 119.589 385.297 120.208C384.945 120.827 384.465 121.312 383.857 121.664C383.249 122.016 382.551 122.192 381.761 122.192C380.972 122.192 380.268 122.016 379.649 121.664C379.041 121.312 378.561 120.827 378.209 120.208C377.857 119.589 377.681 118.88 377.681 118.08ZM379.201 118.08C379.201 118.624 379.308 119.104 379.521 119.52C379.745 119.936 380.049 120.261 380.433 120.496C380.817 120.731 381.26 120.848 381.761 120.848C382.263 120.848 382.705 120.731 383.089 120.496C383.473 120.261 383.772 119.936 383.985 119.52C384.209 119.104 384.321 118.624 384.321 118.08C384.321 117.525 384.209 117.045 383.985 116.64C383.772 116.224 383.473 115.899 383.089 115.664C382.705 115.429 382.263 115.312 381.761 115.312C381.26 115.312 380.817 115.429 380.433 115.664C380.049 115.899 379.745 116.224 379.521 116.64C379.308 117.045 379.201 117.525 379.201 118.08ZM395.097 122L391.657 110.432H393.289L395.401 117.504C395.487 117.803 395.567 118.117 395.641 118.448C395.716 118.779 395.796 119.163 395.881 119.6C395.977 119.131 396.068 118.741 396.153 118.432C396.249 118.123 396.34 117.813 396.425 117.504L398.617 110.432H400.313L402.489 117.504C402.585 117.813 402.676 118.133 402.761 118.464C402.847 118.795 402.932 119.173 403.017 119.6C403.124 119.109 403.215 118.704 403.289 118.384C403.375 118.064 403.455 117.776 403.529 117.52L405.657 110.432H407.257L403.769 122H402.265L399.465 112.848L396.633 122H395.097ZM407.376 118.08C407.376 117.28 407.552 116.571 407.904 115.952C408.256 115.333 408.736 114.848 409.344 114.496C409.962 114.144 410.666 113.968 411.456 113.968C412.245 113.968 412.944 114.144 413.552 114.496C414.16 114.848 414.64 115.333 414.992 115.952C415.344 116.571 415.52 117.28 415.52 118.08C415.52 118.88 415.344 119.589 414.992 120.208C414.64 120.827 414.16 121.312 413.552 121.664C412.944 122.016 412.245 122.192 411.456 122.192C410.666 122.192 409.962 122.016 409.344 121.664C408.736 121.312 408.256 120.827 407.904 120.208C407.552 119.589 407.376 118.88 407.376 118.08ZM408.896 118.08C408.896 118.624 409.002 119.104 409.216 119.52C409.44 119.936 409.744 120.261 410.128 120.496C410.512 120.731 410.954 120.848 411.456 120.848C411.957 120.848 412.4 120.731 412.784 120.496C413.168 120.261 413.466 119.936 413.68 119.52C413.904 119.104 414.016 118.624 414.016 118.08C414.016 117.525 413.904 117.045 413.68 116.64C413.466 116.224 413.168 115.899 412.784 115.664C412.4 115.429 411.957 115.312 411.456 115.312C410.954 115.312 410.512 115.429 410.128 115.664C409.744 115.899 409.44 116.224 409.216 116.64C409.002 117.045 408.896 117.525 408.896 118.08ZM422.725 114.176H424.213V122H422.869L422.709 120.816C422.485 121.221 422.133 121.552 421.653 121.808C421.173 122.064 420.645 122.192 420.069 122.192C419.162 122.192 418.458 121.909 417.957 121.344C417.466 120.768 417.221 120 417.221 119.04V114.176H418.725V118.544C418.725 119.376 418.89 119.973 419.221 120.336C419.562 120.688 420.021 120.864 420.597 120.864C421.29 120.864 421.818 120.651 422.181 120.224C422.544 119.787 422.725 119.147 422.725 118.304V114.176ZM428.219 122H426.715V114.176H428.075L428.235 115.376C428.481 114.928 428.833 114.581 429.291 114.336C429.761 114.08 430.273 113.952 430.827 113.952C431.851 113.952 432.609 114.245 433.099 114.832C433.59 115.419 433.835 116.213 433.835 117.216V122H432.331V117.552C432.331 116.763 432.161 116.197 431.819 115.856C431.478 115.504 431.019 115.328 430.443 115.328C429.739 115.328 429.19 115.557 428.795 116.016C428.411 116.475 428.219 117.088 428.219 117.856V122ZM439.374 122.192C438.617 122.192 437.966 122.021 437.422 121.68C436.878 121.328 436.457 120.843 436.158 120.224C435.87 119.605 435.726 118.901 435.726 118.112C435.726 117.312 435.876 116.603 436.174 115.984C436.473 115.355 436.9 114.859 437.454 114.496C438.009 114.133 438.67 113.952 439.438 113.952C440.046 113.952 440.585 114.08 441.054 114.336C441.534 114.581 441.908 114.949 442.174 115.44V110.224H443.662V122H442.318L442.19 120.576C441.934 121.099 441.556 121.499 441.054 121.776C440.564 122.053 440.004 122.192 439.374 122.192ZM439.678 120.832C440.19 120.832 440.628 120.715 440.99 120.48C441.364 120.245 441.652 119.92 441.854 119.504C442.057 119.088 442.158 118.608 442.158 118.064C442.158 117.52 442.057 117.045 441.854 116.64C441.652 116.224 441.364 115.899 440.99 115.664C440.628 115.429 440.19 115.312 439.678 115.312C439.166 115.312 438.729 115.435 438.366 115.68C438.004 115.915 437.726 116.24 437.534 116.656C437.342 117.061 437.246 117.531 437.246 118.064C437.246 118.608 437.342 119.088 437.534 119.504C437.726 119.92 438.004 120.245 438.366 120.48C438.729 120.715 439.166 120.832 439.678 120.832ZM445.512 119.728H446.952C446.952 120.123 447.096 120.437 447.384 120.672C447.672 120.896 448.061 121.008 448.552 121.008C449.085 121.008 449.496 120.907 449.784 120.704C450.072 120.491 450.216 120.208 450.216 119.856C450.216 119.6 450.136 119.387 449.976 119.216C449.827 119.045 449.549 118.907 449.144 118.8L447.768 118.48C447.075 118.309 446.557 118.048 446.216 117.696C445.885 117.344 445.72 116.88 445.72 116.304C445.72 115.824 445.843 115.408 446.088 115.056C446.344 114.704 446.691 114.432 447.128 114.24C447.576 114.048 448.088 113.952 448.664 113.952C449.24 113.952 449.736 114.053 450.152 114.256C450.579 114.459 450.909 114.741 451.144 115.104C451.389 115.467 451.517 115.899 451.528 116.4H450.088C450.077 115.995 449.944 115.68 449.688 115.456C449.432 115.232 449.075 115.12 448.616 115.12C448.147 115.12 447.784 115.221 447.528 115.424C447.272 115.627 447.144 115.904 447.144 116.256C447.144 116.779 447.528 117.136 448.296 117.328L449.672 117.664C450.333 117.813 450.829 118.059 451.16 118.4C451.491 118.731 451.656 119.184 451.656 119.76C451.656 120.251 451.523 120.683 451.256 121.056C450.989 121.419 450.621 121.701 450.152 121.904C449.693 122.096 449.149 122.192 448.52 122.192C447.603 122.192 446.872 121.968 446.328 121.52C445.784 121.072 445.512 120.475 445.512 119.728ZM454.926 121.856L455.054 121.824C454.99 121.888 454.91 121.936 454.814 121.968C454.729 122 454.622 122.016 454.494 122.016C454.238 122.016 454.009 121.931 453.806 121.76C453.614 121.579 453.518 121.339 453.518 121.04C453.518 120.72 453.614 120.459 453.806 120.256C454.009 120.043 454.27 119.936 454.59 119.936C454.932 119.936 455.22 120.064 455.454 120.32C455.689 120.576 455.806 120.928 455.806 121.376C455.806 121.76 455.716 122.112 455.534 122.432C455.364 122.763 455.129 123.029 454.83 123.232C454.532 123.445 454.19 123.579 453.806 123.632V122.96C454.126 122.896 454.393 122.763 454.606 122.56C454.82 122.368 454.926 122.133 454.926 121.856ZM348.847 132.432V144H347.279V132.432H348.847ZM351.775 139.872H348.495V138.464H351.439C352.217 138.464 352.815 138.256 353.231 137.84C353.647 137.413 353.855 136.843 353.855 136.128C353.855 135.403 353.647 134.843 353.231 134.448C352.815 134.043 352.239 133.84 351.503 133.84H348.143V132.432H351.775C352.532 132.432 353.188 132.587 353.743 132.896C354.297 133.205 354.729 133.637 355.039 134.192C355.348 134.747 355.503 135.397 355.503 136.144C355.503 136.859 355.348 137.499 355.039 138.064C354.729 138.629 354.297 139.072 353.743 139.392C353.188 139.712 352.532 139.872 351.775 139.872ZM359.318 144.192C358.486 144.192 357.83 143.973 357.35 143.536C356.881 143.099 356.646 142.528 356.646 141.824C356.646 141.109 356.902 140.539 357.414 140.112C357.926 139.675 358.641 139.419 359.558 139.344L362.022 139.152V138.928C362.022 138.491 361.942 138.144 361.782 137.888C361.622 137.621 361.404 137.435 361.126 137.328C360.849 137.211 360.534 137.152 360.182 137.152C359.553 137.152 359.062 137.285 358.71 137.552C358.369 137.808 358.198 138.176 358.198 138.656H356.886C356.886 138.112 357.025 137.637 357.302 137.232C357.58 136.827 357.969 136.512 358.47 136.288C358.982 136.064 359.574 135.952 360.246 135.952C360.897 135.952 361.462 136.069 361.942 136.304C362.433 136.528 362.812 136.875 363.078 137.344C363.356 137.803 363.494 138.384 363.494 139.088V144H362.214L362.054 142.736C361.852 143.184 361.5 143.541 360.998 143.808C360.508 144.064 359.948 144.192 359.318 144.192ZM359.75 143.024C360.465 143.024 361.025 142.811 361.43 142.384C361.836 141.947 362.038 141.36 362.038 140.624V140.208L360.038 140.368C359.377 140.432 358.897 140.587 358.598 140.832C358.31 141.077 358.166 141.392 358.166 141.776C358.166 142.192 358.305 142.507 358.582 142.72C358.87 142.923 359.26 143.024 359.75 143.024ZM365.897 144V136.176H367.401V144H365.897ZM366.633 134.32C366.366 134.32 366.132 134.224 365.929 134.032C365.737 133.829 365.641 133.595 365.641 133.328C365.641 133.051 365.737 132.816 365.929 132.624C366.132 132.432 366.366 132.336 366.633 132.336C366.91 132.336 367.145 132.432 367.337 132.624C367.529 132.816 367.625 133.051 367.625 133.328C367.625 133.595 367.529 133.829 367.337 134.032C367.145 134.224 366.91 134.32 366.633 134.32ZM371.409 144H369.905V136.176H371.265L371.425 137.376C371.67 136.928 372.022 136.581 372.481 136.336C372.95 136.08 373.462 135.952 374.017 135.952C375.041 135.952 375.798 136.245 376.289 136.832C376.779 137.419 377.025 138.213 377.025 139.216V144H375.521V139.552C375.521 138.763 375.35 138.197 375.009 137.856C374.667 137.504 374.209 137.328 373.633 137.328C372.929 137.328 372.379 137.557 371.985 138.016C371.601 138.475 371.409 139.088 371.409 139.856V144ZM380.964 144H379.46V132.224H380.964V144ZM386.874 144.192C386.116 144.192 385.444 144.021 384.858 143.68C384.271 143.328 383.812 142.848 383.482 142.24C383.151 141.621 382.986 140.907 382.986 140.096C382.986 139.275 383.146 138.555 383.466 137.936C383.796 137.317 384.244 136.832 384.81 136.48C385.386 136.128 386.052 135.952 386.81 135.952C387.556 135.952 388.202 136.112 388.746 136.432C389.3 136.752 389.727 137.2 390.026 137.776C390.335 138.352 390.49 139.029 390.49 139.808V140.368L383.786 140.384L383.818 139.376H388.986C388.986 138.725 388.788 138.203 388.394 137.808C387.999 137.413 387.471 137.216 386.81 137.216C386.308 137.216 385.876 137.328 385.514 137.552C385.162 137.765 384.89 138.085 384.698 138.512C384.516 138.928 384.426 139.429 384.426 140.016C384.426 140.955 384.639 141.68 385.066 142.192C385.492 142.693 386.106 142.944 386.906 142.944C387.492 142.944 387.972 142.827 388.346 142.592C388.719 142.357 388.97 142.016 389.098 141.568H390.506C390.314 142.4 389.903 143.045 389.274 143.504C388.644 143.963 387.844 144.192 386.874 144.192ZM391.85 141.728H393.29C393.29 142.123 393.434 142.437 393.722 142.672C394.01 142.896 394.399 143.008 394.89 143.008C395.423 143.008 395.834 142.907 396.122 142.704C396.41 142.491 396.554 142.208 396.554 141.856C396.554 141.6 396.474 141.387 396.314 141.216C396.164 141.045 395.887 140.907 395.482 140.8L394.106 140.48C393.412 140.309 392.895 140.048 392.554 139.696C392.223 139.344 392.058 138.88 392.058 138.304C392.058 137.824 392.18 137.408 392.426 137.056C392.682 136.704 393.028 136.432 393.466 136.24C393.914 136.048 394.426 135.952 395.002 135.952C395.578 135.952 396.074 136.053 396.49 136.256C396.916 136.459 397.247 136.741 397.482 137.104C397.727 137.467 397.855 137.899 397.866 138.4H396.426C396.415 137.995 396.282 137.68 396.026 137.456C395.77 137.232 395.412 137.12 394.954 137.12C394.484 137.12 394.122 137.221 393.866 137.424C393.61 137.627 393.482 137.904 393.482 138.256C393.482 138.779 393.866 139.136 394.634 139.328L396.01 139.664C396.671 139.813 397.167 140.059 397.498 140.4C397.828 140.731 397.994 141.184 397.994 141.76C397.994 142.251 397.86 142.683 397.594 143.056C397.327 143.419 396.959 143.701 396.49 143.904C396.031 144.096 395.487 144.192 394.858 144.192C393.94 144.192 393.21 143.968 392.666 143.52C392.122 143.072 391.85 142.475 391.85 141.728ZM399.341 141.728H400.781C400.781 142.123 400.925 142.437 401.213 142.672C401.501 142.896 401.891 143.008 402.381 143.008C402.915 143.008 403.325 142.907 403.613 142.704C403.901 142.491 404.045 142.208 404.045 141.856C404.045 141.6 403.965 141.387 403.805 141.216C403.656 141.045 403.379 140.907 402.973 140.8L401.597 140.48C400.904 140.309 400.387 140.048 400.045 139.696C399.715 139.344 399.549 138.88 399.549 138.304C399.549 137.824 399.672 137.408 399.917 137.056C400.173 136.704 400.52 136.432 400.957 136.24C401.405 136.048 401.917 135.952 402.493 135.952C403.069 135.952 403.565 136.053 403.981 136.256C404.408 136.459 404.739 136.741 404.973 137.104C405.219 137.467 405.347 137.899 405.357 138.4H403.917C403.907 137.995 403.773 137.68 403.517 137.456C403.261 137.232 402.904 137.12 402.445 137.12C401.976 137.12 401.613 137.221 401.357 137.424C401.101 137.627 400.973 137.904 400.973 138.256C400.973 138.779 401.357 139.136 402.125 139.328L403.501 139.664C404.163 139.813 404.659 140.059 404.989 140.4C405.32 140.731 405.485 141.184 405.485 141.76C405.485 142.251 405.352 142.683 405.085 143.056C404.819 143.419 404.451 143.701 403.981 143.904C403.523 144.096 402.979 144.192 402.349 144.192C401.432 144.192 400.701 143.968 400.157 143.52C399.613 143.072 399.341 142.475 399.341 141.728Z" fill="#828282"/>
<path id="Insurance Paperwork&#39;s support" d="M559.255 110.432V122H557.687V110.432H559.255ZM563.521 122H562.017V114.176H563.377L563.537 115.376C563.782 114.928 564.134 114.581 564.593 114.336C565.062 114.08 565.574 113.952 566.129 113.952C567.153 113.952 567.91 114.245 568.401 114.832C568.891 115.419 569.137 116.213 569.137 117.216V122H567.633V117.552C567.633 116.763 567.462 116.197 567.121 115.856C566.779 115.504 566.321 115.328 565.745 115.328C565.041 115.328 564.491 115.557 564.097 116.016C563.713 116.475 563.521 117.088 563.521 117.856V122ZM570.806 119.728H572.246C572.246 120.123 572.39 120.437 572.678 120.672C572.966 120.896 573.355 121.008 573.846 121.008C574.379 121.008 574.79 120.907 575.078 120.704C575.366 120.491 575.51 120.208 575.51 119.856C575.51 119.6 575.43 119.387 575.27 119.216C575.121 119.045 574.843 118.907 574.438 118.8L573.062 118.48C572.369 118.309 571.851 118.048 571.51 117.696C571.179 117.344 571.014 116.88 571.014 116.304C571.014 115.824 571.137 115.408 571.382 115.056C571.638 114.704 571.985 114.432 572.422 114.24C572.87 114.048 573.382 113.952 573.958 113.952C574.534 113.952 575.03 114.053 575.446 114.256C575.873 114.459 576.203 114.741 576.438 115.104C576.683 115.467 576.811 115.899 576.822 116.4H575.382C575.371 115.995 575.238 115.68 574.982 115.456C574.726 115.232 574.369 115.12 573.91 115.12C573.441 115.12 573.078 115.221 572.822 115.424C572.566 115.627 572.438 115.904 572.438 116.256C572.438 116.779 572.822 117.136 573.59 117.328L574.966 117.664C575.627 117.813 576.123 118.059 576.454 118.4C576.785 118.731 576.95 119.184 576.95 119.76C576.95 120.251 576.817 120.683 576.55 121.056C576.283 121.419 575.915 121.701 575.446 121.904C574.987 122.096 574.443 122.192 573.814 122.192C572.897 122.192 572.166 121.968 571.622 121.52C571.078 121.072 570.806 120.475 570.806 119.728ZM584.346 114.176H585.834V122H584.49L584.33 120.816C584.106 121.221 583.754 121.552 583.274 121.808C582.794 122.064 582.266 122.192 581.69 122.192C580.783 122.192 580.079 121.909 579.578 121.344C579.087 120.768 578.842 120 578.842 119.04V114.176H580.346V118.544C580.346 119.376 580.511 119.973 580.842 120.336C581.183 120.688 581.642 120.864 582.218 120.864C582.911 120.864 583.439 120.651 583.802 120.224C584.165 119.787 584.346 119.147 584.346 118.304V114.176ZM592.816 114.112V115.488H592.144C591.429 115.488 590.864 115.696 590.448 116.112C590.043 116.517 589.84 117.099 589.84 117.856V122H588.336V114.192H589.744L589.872 115.76H589.728C589.835 115.248 590.091 114.832 590.496 114.512C590.901 114.181 591.408 114.016 592.016 114.016C592.155 114.016 592.283 114.027 592.4 114.048C592.528 114.059 592.667 114.08 592.816 114.112ZM596.522 122.192C595.69 122.192 595.034 121.973 594.554 121.536C594.085 121.099 593.85 120.528 593.85 119.824C593.85 119.109 594.106 118.539 594.618 118.112C595.13 117.675 595.845 117.419 596.762 117.344L599.226 117.152V116.928C599.226 116.491 599.146 116.144 598.986 115.888C598.826 115.621 598.608 115.435 598.33 115.328C598.053 115.211 597.738 115.152 597.386 115.152C596.757 115.152 596.266 115.285 595.914 115.552C595.573 115.808 595.402 116.176 595.402 116.656H594.09C594.09 116.112 594.229 115.637 594.506 115.232C594.784 114.827 595.173 114.512 595.674 114.288C596.186 114.064 596.778 113.952 597.45 113.952C598.101 113.952 598.666 114.069 599.146 114.304C599.637 114.528 600.016 114.875 600.282 115.344C600.56 115.803 600.698 116.384 600.698 117.088V122H599.418L599.258 120.736C599.056 121.184 598.704 121.541 598.202 121.808C597.712 122.064 597.152 122.192 596.522 122.192ZM596.954 121.024C597.669 121.024 598.229 120.811 598.634 120.384C599.04 119.947 599.242 119.36 599.242 118.624V118.208L597.242 118.368C596.581 118.432 596.101 118.587 595.802 118.832C595.514 119.077 595.37 119.392 595.37 119.776C595.37 120.192 595.509 120.507 595.786 120.72C596.074 120.923 596.464 121.024 596.954 121.024ZM604.605 122H603.101V114.176H604.461L604.621 115.376C604.866 114.928 605.218 114.581 605.677 114.336C606.146 114.08 606.658 113.952 607.213 113.952C608.237 113.952 608.994 114.245 609.485 114.832C609.976 115.419 610.221 116.213 610.221 117.216V122H608.717V117.552C608.717 116.763 608.546 116.197 608.205 115.856C607.864 115.504 607.405 115.328 606.829 115.328C606.125 115.328 605.576 115.557 605.181 116.016C604.797 116.475 604.605 117.088 604.605 117.856V122ZM612.112 118.096C612.112 117.275 612.272 116.555 612.592 115.936C612.923 115.317 613.376 114.832 613.952 114.48C614.528 114.128 615.195 113.952 615.952 113.952C616.934 113.952 617.75 114.213 618.4 114.736C619.051 115.259 619.44 115.952 619.568 116.816H618.064C617.936 116.315 617.686 115.936 617.312 115.68C616.939 115.424 616.502 115.296 616 115.296C615.531 115.296 615.115 115.413 614.752 115.648C614.39 115.872 614.107 116.192 613.904 116.608C613.702 117.024 613.6 117.515 613.6 118.08C613.6 118.645 613.696 119.136 613.888 119.552C614.08 119.957 614.352 120.277 614.704 120.512C615.056 120.736 615.467 120.848 615.936 120.848C616.47 120.848 616.928 120.715 617.312 120.448C617.696 120.181 617.952 119.819 618.08 119.36H619.584C619.488 119.925 619.27 120.421 618.928 120.848C618.598 121.264 618.171 121.595 617.648 121.84C617.136 122.075 616.566 122.192 615.936 122.192C615.168 122.192 614.496 122.021 613.92 121.68C613.355 121.339 612.912 120.864 612.592 120.256C612.272 119.637 612.112 118.917 612.112 118.096ZM624.867 122.192C624.11 122.192 623.438 122.021 622.851 121.68C622.264 121.328 621.806 120.848 621.475 120.24C621.144 119.621 620.979 118.907 620.979 118.096C620.979 117.275 621.139 116.555 621.459 115.936C621.79 115.317 622.238 114.832 622.803 114.48C623.379 114.128 624.046 113.952 624.803 113.952C625.55 113.952 626.195 114.112 626.739 114.432C627.294 114.752 627.72 115.2 628.019 115.776C628.328 116.352 628.483 117.029 628.483 117.808V118.368L621.779 118.384L621.811 117.376H626.979C626.979 116.725 626.782 116.203 626.387 115.808C625.992 115.413 625.464 115.216 624.803 115.216C624.302 115.216 623.87 115.328 623.507 115.552C623.155 115.765 622.883 116.085 622.691 116.512C622.51 116.928 622.419 117.429 622.419 118.016C622.419 118.955 622.632 119.68 623.059 120.192C623.486 120.693 624.099 120.944 624.899 120.944C625.486 120.944 625.966 120.827 626.339 120.592C626.712 120.357 626.963 120.016 627.091 119.568H628.499C628.307 120.4 627.896 121.045 627.267 121.504C626.638 121.963 625.838 122.192 624.867 122.192ZM637.002 110.432V122H635.434V110.432H637.002ZM639.93 117.872H636.65V116.464H639.594C640.373 116.464 640.97 116.256 641.386 115.84C641.802 115.413 642.01 114.843 642.01 114.128C642.01 113.403 641.802 112.843 641.386 112.448C640.97 112.043 640.394 111.84 639.658 111.84H636.298V110.432H639.93C640.687 110.432 641.343 110.587 641.898 110.896C642.453 111.205 642.885 111.637 643.194 112.192C643.503 112.747 643.658 113.397 643.658 114.144C643.658 114.859 643.503 115.499 643.194 116.064C642.885 116.629 642.453 117.072 641.898 117.392C641.343 117.712 640.687 117.872 639.93 117.872ZM647.473 122.192C646.641 122.192 645.985 121.973 645.505 121.536C645.036 121.099 644.801 120.528 644.801 119.824C644.801 119.109 645.057 118.539 645.569 118.112C646.081 117.675 646.796 117.419 647.713 117.344L650.177 117.152V116.928C650.177 116.491 650.097 116.144 649.937 115.888C649.777 115.621 649.559 115.435 649.281 115.328C649.004 115.211 648.689 115.152 648.337 115.152C647.708 115.152 647.217 115.285 646.865 115.552C646.524 115.808 646.353 116.176 646.353 116.656H645.041C645.041 116.112 645.18 115.637 645.457 115.232C645.735 114.827 646.124 114.512 646.625 114.288C647.137 114.064 647.729 113.952 648.401 113.952C649.052 113.952 649.617 114.069 650.097 114.304C650.588 114.528 650.967 114.875 651.233 115.344C651.511 115.803 651.649 116.384 651.649 117.088V122H650.369L650.209 120.736C650.007 121.184 649.655 121.541 649.153 121.808C648.663 122.064 648.103 122.192 647.473 122.192ZM647.905 121.024C648.62 121.024 649.18 120.811 649.585 120.384C649.991 119.947 650.193 119.36 650.193 118.624V118.208L648.193 118.368C647.532 118.432 647.052 118.587 646.753 118.832C646.465 119.077 646.321 119.392 646.321 119.776C646.321 120.192 646.46 120.507 646.737 120.72C647.025 120.923 647.415 121.024 647.905 121.024ZM654.052 125.504V114.176H655.412L655.524 115.584C655.78 115.04 656.159 114.635 656.66 114.368C657.172 114.091 657.738 113.952 658.356 113.952C659.103 113.952 659.748 114.128 660.292 114.48C660.836 114.821 661.252 115.301 661.54 115.92C661.839 116.528 661.988 117.232 661.988 118.032C661.988 118.832 661.844 119.547 661.556 120.176C661.279 120.805 660.868 121.301 660.324 121.664C659.791 122.027 659.135 122.208 658.356 122.208C657.727 122.208 657.167 122.08 656.676 121.824C656.186 121.568 655.812 121.2 655.556 120.72V125.504H654.052ZM655.572 118.096C655.572 118.619 655.668 119.093 655.86 119.52C656.063 119.936 656.346 120.261 656.708 120.496C657.082 120.731 657.524 120.848 658.036 120.848C658.548 120.848 658.986 120.731 659.348 120.496C659.711 120.251 659.988 119.92 660.18 119.504C660.383 119.088 660.484 118.619 660.484 118.096C660.484 117.552 660.383 117.072 660.18 116.656C659.988 116.24 659.711 115.915 659.348 115.68C658.986 115.445 658.548 115.328 658.036 115.328C657.524 115.328 657.082 115.445 656.708 115.68C656.346 115.915 656.063 116.24 655.86 116.656C655.668 117.072 655.572 117.552 655.572 118.096ZM667.342 122.192C666.585 122.192 665.913 122.021 665.326 121.68C664.739 121.328 664.281 120.848 663.95 120.24C663.619 119.621 663.454 118.907 663.454 118.096C663.454 117.275 663.614 116.555 663.934 115.936C664.265 115.317 664.713 114.832 665.278 114.48C665.854 114.128 666.521 113.952 667.278 113.952C668.025 113.952 668.67 114.112 669.214 114.432C669.769 114.752 670.195 115.2 670.494 115.776C670.803 116.352 670.958 117.029 670.958 117.808V118.368L664.254 118.384L664.286 117.376H669.454C669.454 116.725 669.257 116.203 668.862 115.808C668.467 115.413 667.939 115.216 667.278 115.216C666.777 115.216 666.345 115.328 665.982 115.552C665.63 115.765 665.358 116.085 665.166 116.512C664.985 116.928 664.894 117.429 664.894 118.016C664.894 118.955 665.107 119.68 665.534 120.192C665.961 120.693 666.574 120.944 667.374 120.944C667.961 120.944 668.441 120.827 668.814 120.592C669.187 120.357 669.438 120.016 669.566 119.568H670.974C670.782 120.4 670.371 121.045 669.742 121.504C669.113 121.963 668.313 122.192 667.342 122.192ZM677.438 114.112V115.488H676.766C676.051 115.488 675.486 115.696 675.07 116.112C674.665 116.517 674.462 117.099 674.462 117.856V122H672.958V114.192H674.366L674.494 115.76H674.35C674.457 115.248 674.713 114.832 675.118 114.512C675.523 114.181 676.03 114.016 676.638 114.016C676.777 114.016 676.905 114.027 677.022 114.048C677.15 114.059 677.289 114.08 677.438 114.112ZM681.083 122L678.523 114.176H680.075L681.371 118.24C681.467 118.528 681.552 118.827 681.627 119.136C681.702 119.435 681.776 119.755 681.851 120.096C681.894 119.861 681.942 119.637 681.995 119.424C682.059 119.2 682.123 118.992 682.187 118.8C682.251 118.597 682.31 118.411 682.363 118.24L683.675 114.176H685.211L686.507 118.24C686.55 118.336 686.587 118.464 686.619 118.624C686.662 118.773 686.71 118.933 686.763 119.104C686.816 119.275 686.864 119.445 686.907 119.616C686.95 119.787 686.987 119.947 687.019 120.096C687.062 119.883 687.104 119.68 687.147 119.488C687.2 119.285 687.254 119.088 687.307 118.896C687.371 118.693 687.44 118.475 687.515 118.24L688.827 114.176H690.395L687.723 122H686.299L684.939 117.808C684.811 117.413 684.704 117.067 684.619 116.768C684.544 116.459 684.486 116.197 684.443 115.984C684.4 116.176 684.336 116.416 684.251 116.704C684.176 116.981 684.07 117.355 683.931 117.824L682.571 122H681.083ZM691.133 118.08C691.133 117.28 691.309 116.571 691.661 115.952C692.013 115.333 692.493 114.848 693.101 114.496C693.72 114.144 694.424 113.968 695.213 113.968C696.002 113.968 696.701 114.144 697.309 114.496C697.917 114.848 698.397 115.333 698.749 115.952C699.101 116.571 699.277 117.28 699.277 118.08C699.277 118.88 699.101 119.589 698.749 120.208C698.397 120.827 697.917 121.312 697.309 121.664C696.701 122.016 696.002 122.192 695.213 122.192C694.424 122.192 693.72 122.016 693.101 121.664C692.493 121.312 692.013 120.827 691.661 120.208C691.309 119.589 691.133 118.88 691.133 118.08ZM692.653 118.08C692.653 118.624 692.76 119.104 692.973 119.52C693.197 119.936 693.501 120.261 693.885 120.496C694.269 120.731 694.712 120.848 695.213 120.848C695.714 120.848 696.157 120.731 696.541 120.496C696.925 120.261 697.224 119.936 697.437 119.52C697.661 119.104 697.773 118.624 697.773 118.08C697.773 117.525 697.661 117.045 697.437 116.64C697.224 116.224 696.925 115.899 696.541 115.664C696.157 115.429 695.714 115.312 695.213 115.312C694.712 115.312 694.269 115.429 693.885 115.664C693.501 115.899 693.197 116.224 692.973 116.64C692.76 117.045 692.653 117.525 692.653 118.08ZM705.742 114.112V115.488H705.07C704.355 115.488 703.79 115.696 703.374 116.112C702.968 116.517 702.766 117.099 702.766 117.856V122H701.262V114.192H702.67L702.798 115.76H702.654C702.76 115.248 703.016 114.832 703.422 114.512C703.827 114.181 704.334 114.016 704.942 114.016C705.08 114.016 705.208 114.027 705.326 114.048C705.454 114.059 705.592 114.08 705.742 114.112ZM709.008 122H707.504V110.224H709.008V117.856L712.48 114.176H714.368L711.376 117.296L714.352 122H712.624L710.336 118.384L709.008 119.776V122ZM717.325 111.408L716.941 114.72H716.077L715.661 111.408C715.629 111.163 715.656 110.965 715.741 110.816C715.827 110.667 715.939 110.56 716.077 110.496C716.227 110.421 716.376 110.384 716.525 110.384C716.664 110.384 716.797 110.421 716.925 110.496C717.064 110.56 717.171 110.667 717.245 110.816C717.331 110.965 717.357 111.163 717.325 111.408ZM718.613 119.728H720.053C720.053 120.123 720.197 120.437 720.485 120.672C720.773 120.896 721.162 121.008 721.653 121.008C722.186 121.008 722.597 120.907 722.885 120.704C723.173 120.491 723.317 120.208 723.317 119.856C723.317 119.6 723.237 119.387 723.077 119.216C722.928 119.045 722.65 118.907 722.245 118.8L720.869 118.48C720.176 118.309 719.658 118.048 719.317 117.696C718.986 117.344 718.821 116.88 718.821 116.304C718.821 115.824 718.944 115.408 719.189 115.056C719.445 114.704 719.792 114.432 720.229 114.24C720.677 114.048 721.189 113.952 721.765 113.952C722.341 113.952 722.837 114.053 723.253 114.256C723.68 114.459 724.01 114.741 724.245 115.104C724.49 115.467 724.618 115.899 724.629 116.4H723.189C723.178 115.995 723.045 115.68 722.789 115.456C722.533 115.232 722.176 115.12 721.717 115.12C721.248 115.12 720.885 115.221 720.629 115.424C720.373 115.627 720.245 115.904 720.245 116.256C720.245 116.779 720.629 117.136 721.397 117.328L722.773 117.664C723.434 117.813 723.93 118.059 724.261 118.4C724.592 118.731 724.757 119.184 724.757 119.76C724.757 120.251 724.624 120.683 724.357 121.056C724.09 121.419 723.722 121.701 723.253 121.904C722.794 122.096 722.25 122.192 721.621 122.192C720.704 122.192 719.973 121.968 719.429 121.52C718.885 121.072 718.613 120.475 718.613 119.728ZM612.472 141.728H613.912C613.912 142.123 614.056 142.437 614.344 142.672C614.632 142.896 615.022 143.008 615.512 143.008C616.046 143.008 616.456 142.907 616.744 142.704C617.032 142.491 617.176 142.208 617.176 141.856C617.176 141.6 617.096 141.387 616.936 141.216C616.787 141.045 616.51 140.907 616.104 140.8L614.728 140.48C614.035 140.309 613.518 140.048 613.176 139.696C612.846 139.344 612.68 138.88 612.68 138.304C612.68 137.824 612.803 137.408 613.048 137.056C613.304 136.704 613.651 136.432 614.088 136.24C614.536 136.048 615.048 135.952 615.624 135.952C616.2 135.952 616.696 136.053 617.112 136.256C617.539 136.459 617.87 136.741 618.104 137.104C618.35 137.467 618.478 137.899 618.488 138.4H617.048C617.038 137.995 616.904 137.68 616.648 137.456C616.392 137.232 616.035 137.12 615.576 137.12C615.107 137.12 614.744 137.221 614.488 137.424C614.232 137.627 614.104 137.904 614.104 138.256C614.104 138.779 614.488 139.136 615.256 139.328L616.632 139.664C617.294 139.813 617.79 140.059 618.12 140.4C618.451 140.731 618.616 141.184 618.616 141.76C618.616 142.251 618.483 142.683 618.216 143.056C617.95 143.419 617.582 143.701 617.112 143.904C616.654 144.096 616.11 144.192 615.48 144.192C614.563 144.192 613.832 143.968 613.288 143.52C612.744 143.072 612.472 142.475 612.472 141.728ZM626.012 136.176H627.5V144H626.156L625.996 142.816C625.772 143.221 625.42 143.552 624.94 143.808C624.46 144.064 623.932 144.192 623.356 144.192C622.45 144.192 621.746 143.909 621.244 143.344C620.754 142.768 620.508 142 620.508 141.04V136.176H622.012V140.544C622.012 141.376 622.178 141.973 622.508 142.336C622.85 142.688 623.308 142.864 623.884 142.864C624.578 142.864 625.106 142.651 625.468 142.224C625.831 141.787 626.012 141.147 626.012 140.304V136.176ZM630.002 147.504V136.176H631.362L631.474 137.584C631.73 137.04 632.109 136.635 632.61 136.368C633.122 136.091 633.688 135.952 634.306 135.952C635.053 135.952 635.698 136.128 636.242 136.48C636.786 136.821 637.202 137.301 637.49 137.92C637.789 138.528 637.938 139.232 637.938 140.032C637.938 140.832 637.794 141.547 637.506 142.176C637.229 142.805 636.818 143.301 636.274 143.664C635.741 144.027 635.085 144.208 634.306 144.208C633.677 144.208 633.117 144.08 632.626 143.824C632.136 143.568 631.762 143.2 631.506 142.72V147.504H630.002ZM631.522 140.096C631.522 140.619 631.618 141.093 631.81 141.52C632.013 141.936 632.296 142.261 632.658 142.496C633.032 142.731 633.474 142.848 633.986 142.848C634.498 142.848 634.936 142.731 635.298 142.496C635.661 142.251 635.938 141.92 636.13 141.504C636.333 141.088 636.434 140.619 636.434 140.096C636.434 139.552 636.333 139.072 636.13 138.656C635.938 138.24 635.661 137.915 635.298 137.68C634.936 137.445 634.498 137.328 633.986 137.328C633.474 137.328 633.032 137.445 632.658 137.68C632.296 137.915 632.013 138.24 631.81 138.656C631.618 139.072 631.522 139.552 631.522 140.096ZM639.916 147.504V136.176H641.276L641.388 137.584C641.644 137.04 642.023 136.635 642.524 136.368C643.036 136.091 643.601 135.952 644.22 135.952C644.967 135.952 645.612 136.128 646.156 136.48C646.7 136.821 647.116 137.301 647.404 137.92C647.703 138.528 647.852 139.232 647.852 140.032C647.852 140.832 647.708 141.547 647.42 142.176C647.143 142.805 646.732 143.301 646.188 143.664C645.655 144.027 644.999 144.208 644.22 144.208C643.591 144.208 643.031 144.08 642.54 143.824C642.049 143.568 641.676 143.2 641.42 142.72V147.504H639.916ZM641.436 140.096C641.436 140.619 641.532 141.093 641.724 141.52C641.927 141.936 642.209 142.261 642.572 142.496C642.945 142.731 643.388 142.848 643.9 142.848C644.412 142.848 644.849 142.731 645.212 142.496C645.575 142.251 645.852 141.92 646.044 141.504C646.247 141.088 646.348 140.619 646.348 140.096C646.348 139.552 646.247 139.072 646.044 138.656C645.852 138.24 645.575 137.915 645.212 137.68C644.849 137.445 644.412 137.328 643.9 137.328C643.388 137.328 642.945 137.445 642.572 137.68C642.209 137.915 641.927 138.24 641.724 138.656C641.532 139.072 641.436 139.552 641.436 140.096ZM649.318 140.08C649.318 139.28 649.494 138.571 649.846 137.952C650.198 137.333 650.678 136.848 651.286 136.496C651.905 136.144 652.609 135.968 653.398 135.968C654.187 135.968 654.886 136.144 655.494 136.496C656.102 136.848 656.582 137.333 656.934 137.952C657.286 138.571 657.462 139.28 657.462 140.08C657.462 140.88 657.286 141.589 656.934 142.208C656.582 142.827 656.102 143.312 655.494 143.664C654.886 144.016 654.187 144.192 653.398 144.192C652.609 144.192 651.905 144.016 651.286 143.664C650.678 143.312 650.198 142.827 649.846 142.208C649.494 141.589 649.318 140.88 649.318 140.08ZM650.838 140.08C650.838 140.624 650.945 141.104 651.158 141.52C651.382 141.936 651.686 142.261 652.07 142.496C652.454 142.731 652.897 142.848 653.398 142.848C653.899 142.848 654.342 142.731 654.726 142.496C655.11 142.261 655.409 141.936 655.622 141.52C655.846 141.104 655.958 140.624 655.958 140.08C655.958 139.525 655.846 139.045 655.622 138.64C655.409 138.224 655.11 137.899 654.726 137.664C654.342 137.429 653.899 137.312 653.398 137.312C652.897 137.312 652.454 137.429 652.07 137.664C651.686 137.899 651.382 138.224 651.158 138.64C650.945 139.045 650.838 139.525 650.838 140.08ZM663.927 136.112V137.488H663.255C662.54 137.488 661.975 137.696 661.559 138.112C661.153 138.517 660.951 139.099 660.951 139.856V144H659.447V136.192H660.855L660.983 137.76H660.839C660.945 137.248 661.201 136.832 661.607 136.512C662.012 136.181 662.519 136.016 663.127 136.016C663.265 136.016 663.393 136.027 663.511 136.048C663.639 136.059 663.777 136.08 663.927 136.112ZM665.138 136.176H669.714V137.44H665.138V136.176ZM668.178 144H666.674V133.728H668.178V144Z" fill="#828282"/>
<path id="1 Day Procedure" d="M890.653 111.84H888.221V110.432H892.157V122H890.653V111.84ZM903.672 122H899.848V110.432H903.608C904.76 110.432 905.768 110.677 906.632 111.168C907.507 111.648 908.184 112.325 908.664 113.2C909.155 114.064 909.4 115.072 909.4 116.224C909.4 117.365 909.16 118.373 908.68 119.248C908.2 120.112 907.528 120.789 906.664 121.28C905.811 121.76 904.813 122 903.672 122ZM901.416 111.168V121.28L900.68 120.544H903.56C904.424 120.544 905.165 120.368 905.784 120.016C906.413 119.664 906.899 119.168 907.24 118.528C907.592 117.877 907.768 117.109 907.768 116.224C907.768 115.328 907.592 114.555 907.24 113.904C906.899 113.253 906.408 112.752 905.768 112.4C905.139 112.048 904.381 111.872 903.496 111.872H900.68L901.416 111.168ZM913.747 122.192C912.915 122.192 912.259 121.973 911.779 121.536C911.31 121.099 911.075 120.528 911.075 119.824C911.075 119.109 911.331 118.539 911.843 118.112C912.355 117.675 913.07 117.419 913.987 117.344L916.451 117.152V116.928C916.451 116.491 916.371 116.144 916.211 115.888C916.051 115.621 915.832 115.435 915.555 115.328C915.278 115.211 914.963 115.152 914.611 115.152C913.982 115.152 913.491 115.285 913.139 115.552C912.798 115.808 912.627 116.176 912.627 116.656H911.315C911.315 116.112 911.454 115.637 911.731 115.232C912.008 114.827 912.398 114.512 912.899 114.288C913.411 114.064 914.003 113.952 914.675 113.952C915.326 113.952 915.891 114.069 916.371 114.304C916.862 114.528 917.24 114.875 917.507 115.344C917.784 115.803 917.923 116.384 917.923 117.088V122H916.643L916.483 120.736C916.28 121.184 915.928 121.541 915.427 121.808C914.936 122.064 914.376 122.192 913.747 122.192ZM914.179 121.024C914.894 121.024 915.454 120.811 915.859 120.384C916.264 119.947 916.467 119.36 916.467 118.624V118.208L914.467 118.368C913.806 118.432 913.326 118.587 913.027 118.832C912.739 119.077 912.595 119.392 912.595 119.776C912.595 120.192 912.734 120.507 913.011 120.72C913.299 120.923 913.688 121.024 914.179 121.024ZM920.762 114.176L923.514 121.792L922.586 123.072L919.178 114.176H920.762ZM919.386 125.504V124.272H920.394C920.64 124.272 920.864 124.245 921.066 124.192C921.269 124.149 921.456 124.048 921.626 123.888C921.797 123.739 921.941 123.499 922.058 123.168L925.354 114.176H926.906L923.21 123.76C922.944 124.432 922.608 124.917 922.202 125.216C921.797 125.515 921.296 125.664 920.698 125.664C920.453 125.664 920.224 125.648 920.01 125.616C919.797 125.595 919.589 125.557 919.386 125.504ZM871.593 132.432V144H870.025V132.432H871.593ZM874.521 139.872H871.241V138.464H874.185C874.964 138.464 875.561 138.256 875.977 137.84C876.393 137.413 876.601 136.843 876.601 136.128C876.601 135.403 876.393 134.843 875.977 134.448C875.561 134.043 874.985 133.84 874.249 133.84H870.889V132.432H874.521C875.278 132.432 875.934 132.587 876.489 132.896C877.044 133.205 877.476 133.637 877.785 134.192C878.094 134.747 878.249 135.397 878.249 136.144C878.249 136.859 878.094 137.499 877.785 138.064C877.476 138.629 877.044 139.072 876.489 139.392C875.934 139.712 875.278 139.872 874.521 139.872ZM884.569 136.112V137.488H883.897C883.182 137.488 882.617 137.696 882.201 138.112C881.796 138.517 881.593 139.099 881.593 139.856V144H880.089V136.192H881.497L881.625 137.76H881.481C881.588 137.248 881.844 136.832 882.249 136.512C882.654 136.181 883.161 136.016 883.769 136.016C883.908 136.016 884.036 136.027 884.153 136.048C884.281 136.059 884.42 136.08 884.569 136.112ZM885.506 140.08C885.506 139.28 885.682 138.571 886.034 137.952C886.386 137.333 886.866 136.848 887.474 136.496C888.093 136.144 888.797 135.968 889.586 135.968C890.376 135.968 891.074 136.144 891.682 136.496C892.29 136.848 892.77 137.333 893.122 137.952C893.474 138.571 893.65 139.28 893.65 140.08C893.65 140.88 893.474 141.589 893.122 142.208C892.77 142.827 892.29 143.312 891.682 143.664C891.074 144.016 890.376 144.192 889.586 144.192C888.797 144.192 888.093 144.016 887.474 143.664C886.866 143.312 886.386 142.827 886.034 142.208C885.682 141.589 885.506 140.88 885.506 140.08ZM887.026 140.08C887.026 140.624 887.133 141.104 887.346 141.52C887.57 141.936 887.874 142.261 888.258 142.496C888.642 142.731 889.085 142.848 889.586 142.848C890.088 142.848 890.53 142.731 890.914 142.496C891.298 142.261 891.597 141.936 891.81 141.52C892.034 141.104 892.146 140.624 892.146 140.08C892.146 139.525 892.034 139.045 891.81 138.64C891.597 138.224 891.298 137.899 890.914 137.664C890.53 137.429 890.088 137.312 889.586 137.312C889.085 137.312 888.642 137.429 888.258 137.664C887.874 137.899 887.57 138.224 887.346 138.64C887.133 139.045 887.026 139.525 887.026 140.08ZM895.123 140.096C895.123 139.275 895.283 138.555 895.603 137.936C895.934 137.317 896.387 136.832 896.963 136.48C897.539 136.128 898.206 135.952 898.963 135.952C899.945 135.952 900.761 136.213 901.411 136.736C902.062 137.259 902.451 137.952 902.579 138.816H901.075C900.947 138.315 900.697 137.936 900.323 137.68C899.95 137.424 899.513 137.296 899.011 137.296C898.542 137.296 898.126 137.413 897.763 137.648C897.401 137.872 897.118 138.192 896.915 138.608C896.713 139.024 896.611 139.515 896.611 140.08C896.611 140.645 896.707 141.136 896.899 141.552C897.091 141.957 897.363 142.277 897.715 142.512C898.067 142.736 898.478 142.848 898.947 142.848C899.481 142.848 899.939 142.715 900.323 142.448C900.707 142.181 900.963 141.819 901.091 141.36H902.595C902.499 141.925 902.281 142.421 901.939 142.848C901.609 143.264 901.182 143.595 900.659 143.84C900.147 144.075 899.577 144.192 898.947 144.192C898.179 144.192 897.507 144.021 896.931 143.68C896.366 143.339 895.923 142.864 895.603 142.256C895.283 141.637 895.123 140.917 895.123 140.096ZM907.878 144.192C907.121 144.192 906.449 144.021 905.862 143.68C905.275 143.328 904.817 142.848 904.486 142.24C904.155 141.621 903.99 140.907 903.99 140.096C903.99 139.275 904.15 138.555 904.47 137.936C904.801 137.317 905.249 136.832 905.814 136.48C906.39 136.128 907.057 135.952 907.814 135.952C908.561 135.952 909.206 136.112 909.75 136.432C910.305 136.752 910.731 137.2 911.03 137.776C911.339 138.352 911.494 139.029 911.494 139.808V140.368L904.79 140.384L904.822 139.376H909.99C909.99 138.725 909.793 138.203 909.398 137.808C909.003 137.413 908.475 137.216 907.814 137.216C907.313 137.216 906.881 137.328 906.518 137.552C906.166 137.765 905.894 138.085 905.702 138.512C905.521 138.928 905.43 139.429 905.43 140.016C905.43 140.955 905.643 141.68 906.07 142.192C906.497 142.693 907.11 142.944 907.91 142.944C908.497 142.944 908.977 142.827 909.35 142.592C909.723 142.357 909.974 142.016 910.102 141.568H911.51C911.318 142.4 910.907 143.045 910.278 143.504C909.649 143.963 908.849 144.192 907.878 144.192ZM916.63 144.192C915.873 144.192 915.222 144.021 914.678 143.68C914.134 143.328 913.713 142.843 913.414 142.224C913.126 141.605 912.982 140.901 912.982 140.112C912.982 139.312 913.131 138.603 913.43 137.984C913.729 137.355 914.155 136.859 914.71 136.496C915.265 136.133 915.926 135.952 916.694 135.952C917.302 135.952 917.841 136.08 918.31 136.336C918.79 136.581 919.163 136.949 919.43 137.44V132.224H920.918V144H919.574L919.446 142.576C919.19 143.099 918.811 143.499 918.31 143.776C917.819 144.053 917.259 144.192 916.63 144.192ZM916.934 142.832C917.446 142.832 917.883 142.715 918.246 142.48C918.619 142.245 918.907 141.92 919.11 141.504C919.313 141.088 919.414 140.608 919.414 140.064C919.414 139.52 919.313 139.045 919.11 138.64C918.907 138.224 918.619 137.899 918.246 137.664C917.883 137.429 917.446 137.312 916.934 137.312C916.422 137.312 915.985 137.435 915.622 137.68C915.259 137.915 914.982 138.24 914.79 138.656C914.598 139.061 914.502 139.531 914.502 140.064C914.502 140.608 914.598 141.088 914.79 141.504C914.982 141.92 915.259 142.245 915.622 142.48C915.985 142.715 916.422 142.832 916.934 142.832ZM928.816 136.176H930.304V144H928.96L928.8 142.816C928.576 143.221 928.224 143.552 927.744 143.808C927.264 144.064 926.736 144.192 926.16 144.192C925.253 144.192 924.549 143.909 924.048 143.344C923.557 142.768 923.312 142 923.312 141.04V136.176H924.816V140.544C924.816 141.376 924.981 141.973 925.312 142.336C925.653 142.688 926.112 142.864 926.688 142.864C927.381 142.864 927.909 142.651 928.272 142.224C928.634 141.787 928.816 141.147 928.816 140.304V136.176ZM937.286 136.112V137.488H936.614C935.899 137.488 935.334 137.696 934.918 138.112C934.512 138.517 934.31 139.099 934.31 139.856V144H932.806V136.192H934.214L934.342 137.76H934.198C934.304 137.248 934.56 136.832 934.966 136.512C935.371 136.181 935.878 136.016 936.486 136.016C936.624 136.016 936.752 136.027 936.87 136.048C936.998 136.059 937.136 136.08 937.286 136.112ZM942.111 144.192C941.354 144.192 940.682 144.021 940.095 143.68C939.509 143.328 939.05 142.848 938.719 142.24C938.389 141.621 938.223 140.907 938.223 140.096C938.223 139.275 938.383 138.555 938.703 137.936C939.034 137.317 939.482 136.832 940.047 136.48C940.623 136.128 941.29 135.952 942.047 135.952C942.794 135.952 943.439 136.112 943.983 136.432C944.538 136.752 944.965 137.2 945.263 137.776C945.573 138.352 945.727 139.029 945.727 139.808V140.368L939.023 140.384L939.055 139.376H944.223C944.223 138.725 944.026 138.203 943.631 137.808C943.237 137.413 942.709 137.216 942.047 137.216C941.546 137.216 941.114 137.328 940.751 137.552C940.399 137.765 940.127 138.085 939.935 138.512C939.754 138.928 939.663 139.429 939.663 140.016C939.663 140.955 939.877 141.68 940.303 142.192C940.73 142.693 941.343 142.944 942.143 142.944C942.73 142.944 943.21 142.827 943.583 142.592C943.957 142.357 944.207 142.016 944.335 141.568H945.743C945.551 142.4 945.141 143.045 944.511 143.504C943.882 143.963 943.082 144.192 942.111 144.192Z" fill="#828282"/>
</g>
</svg>
